<?xml version="1.0" encoding="UTF-8"?>
<svg version="1.1" xmlns="http://www.w3.org/2000/svg" width="1024" height="1024">
<path d="M0 0 C1.67897564 1.50291285 3.34261915 3.02318117 4.98828125 4.5625 C7.06393803 6.49525442 9.20032318 8.30372215 11.3828125 10.11328125 C31.42296339 27.61313132 44.46106226 56.05372153 53.2578125 80.67578125 C53.40476562 79.94617188 53.55171875 79.2165625 53.703125 78.46484375 C55.19363882 71.52624491 57.07389347 64.84161352 59.3203125 58.11328125 C59.70630615 56.9533667 59.70630615 56.9533667 60.10009766 55.77001953 C61.28557618 52.28101907 62.46466243 48.91031512 64.2578125 45.67578125 C63.5978125 45.34578125 62.9378125 45.01578125 62.2578125 44.67578125 C63.39145571 43.54213804 64.53719677 42.4195545 65.71875 41.3359375 C67.50938635 39.40441352 68.61575172 37.42140658 69.8828125 35.11328125 C72.7462557 30.22186332 76.13531088 26.21590775 80.01171875 22.09765625 C81.62666978 20.35631775 83.16607265 18.5437898 84.65234375 16.69140625 C87.3148801 13.60972999 90.14537185 11.11190416 93.3828125 8.67578125 C93.94758301 8.24861816 94.51235352 7.82145508 95.09423828 7.38134766 C101.28391174 2.79158419 107.46144378 -1.72162054 115.1953125 -2.94921875 C118.2578125 -2.32421875 118.2578125 -2.32421875 120.6953125 -0.82421875 C122.46735632 2.01105136 123.07927925 4.30357123 122.88671875 7.6640625 C121.59089385 11.80909246 117.80341659 13.53839982 114.2578125 15.67578125 C112.38157745 16.86132893 110.50661424 18.04889136 108.6328125 19.23828125 C107.69695312 19.82867187 106.76109375 20.4190625 105.796875 21.02734375 C93.44829107 29.04442439 83.88960582 42.18023965 78.2578125 55.67578125 C78.2578125 56.33578125 78.2578125 56.99578125 78.2578125 57.67578125 C77.5978125 57.67578125 76.9378125 57.67578125 76.2578125 57.67578125 C69.92269551 78.47832854 68.48313854 99.10666695 70.2578125 120.67578125 C72.74016687 119.89313763 75.21837346 119.10022848 77.6953125 118.30078125 C78.40236328 118.0790625 79.10941406 117.85734375 79.83789062 117.62890625 C81.6640314 117.03475519 83.46358282 116.36028506 85.2578125 115.67578125 C85.5878125 115.01578125 85.9178125 114.35578125 86.2578125 113.67578125 C88.1496582 113.33203125 88.1496582 113.33203125 90.62109375 113.17578125 C94.35887844 112.87341655 97.98828213 112.42210858 101.67578125 111.73828125 C150.98719566 102.61411409 205.05944408 109.02215081 247.59960938 137.22851562 C252.00558754 140.26774138 256.3409935 143.39674824 260.62646484 146.60351562 C262.38957011 147.86237864 262.38957011 147.86237864 265.2578125 148.67578125 C266.4385217 149.79278312 267.61124572 150.91976151 268.73632812 152.09277344 C270.50436838 153.93230698 272.32390418 155.7125906 274.1484375 157.49609375 C281.99403279 165.22426953 289.6216617 172.86384331 296.2578125 181.67578125 C296.928125 182.55234375 297.5984375 183.42890625 298.2890625 184.33203125 C315.73617358 207.68431839 326.16011485 233.05989828 332.70458984 261.30419922 C333.0332523 262.71312558 333.378558 264.11859911 333.75915623 265.5143919 C337.88039089 283.37758384 336.49686891 303.10668059 336.37938118 321.33812523 C336.35198698 325.77600622 336.34853353 330.21373319 336.34947205 334.65168762 C336.34954767 336.1888876 336.34961341 337.72608757 336.34966946 339.26328754 C336.34974398 340.41518808 336.34974398 340.41518808 336.34982002 341.59035933 C336.34889329 351.87368267 336.32970243 362.15658788 336.26147461 372.43969727 C336.21516269 379.4481179 336.20125685 386.45581925 336.22332376 393.46436769 C336.23361075 397.14777401 336.22813292 400.82951664 336.18217659 404.51268578 C335.99161888 420.49203096 335.95280544 432.85946926 346.2578125 445.67578125 C346.2578125 446.33578125 346.2578125 446.99578125 346.2578125 447.67578125 C346.9178125 448.00578125 347.5778125 448.33578125 348.2578125 448.67578125 C349.21582031 450.37133789 349.21582031 450.37133789 350.2109375 452.5859375 C350.58033447 453.40392822 350.94973145 454.22191895 351.33032227 455.06469727 C351.71889404 455.94697998 352.10746582 456.8292627 352.5078125 457.73828125 C353.10517212 459.08200806 353.10517212 459.08200806 353.71459961 460.45288086 C356.22501062 466.16139659 358.61288021 471.90581841 360.8203125 477.73828125 C361.07135742 478.39771729 361.32240234 479.05715332 361.58105469 479.73657227 C362.61251491 482.53905117 363.2578125 484.66185894 363.2578125 487.67578125 C363.9178125 488.00578125 364.5778125 488.33578125 365.2578125 488.67578125 C365.9878638 491.26470266 366.59073546 493.79594899 367.1328125 496.42578125 C367.30208252 497.21766846 367.47135254 498.00955566 367.64575195 498.82543945 C374.39482505 530.79260605 374.39482505 530.79260605 374.4609375 544.421875 C374.46663757 545.35064957 374.47233765 546.27942413 374.47821045 547.23634338 C374.4876233 549.19881059 374.49417959 551.16129333 374.49804688 553.1237793 C374.50768107 556.07304874 374.53871055 559.02159893 374.5703125 561.97070312 C374.66904231 579.40023505 374.002413 597.42107592 361.6328125 611.05078125 C348.98570746 622.63591564 334.35828717 623.01198606 318.2578125 622.67578125 C318.2578125 622.01578125 318.2578125 621.35578125 318.2578125 620.67578125 C314.6278125 619.02578125 310.9978125 617.37578125 307.2578125 615.67578125 C306.5978125 617.32578125 305.9378125 618.97578125 305.2578125 620.67578125 C299.52859683 628.69154488 292.55707551 635.92617463 285.78417969 643.06591797 C284.79373981 644.11053738 283.80716354 645.15883884 282.82519531 646.21142578 C274.25977578 655.36396697 263.81189559 666.01841531 252.17791748 670.99261475 C248.80836109 674.088764 248.78931819 674.7198472 248.49832153 679.09210205 C248.46310494 681.41563102 248.46122268 683.73980098 248.48486328 686.06347656 C248.47423355 687.33202484 248.46360382 688.60057312 248.45265198 689.90756226 C248.42420759 693.38272096 248.43256949 696.85693243 248.44751978 700.33213902 C248.45689621 703.96507737 248.43245264 707.59778397 248.41159058 711.23065186 C248.37723627 718.10838741 248.37331489 724.98579054 248.38031566 731.86359477 C248.38680553 739.69435302 248.35938649 747.52487752 248.32911325 755.3555665 C248.26760483 771.46234605 248.24869839 787.56888358 248.2578125 803.67578125 C249.28189209 803.86188965 250.30597168 804.04799805 251.36108398 804.23974609 C252.72127073 804.4966507 254.08137383 804.75399842 255.44140625 805.01171875 C256.11441772 805.13281006 256.7874292 805.25390137 257.48083496 805.37866211 C265.73913682 806.96534408 270.92453248 810.3788583 275.6953125 817.23828125 C278.34337147 821.470649 280.17423426 825.79967918 281.2578125 830.67578125 C282.2478125 830.67578125 283.2378125 830.67578125 284.2578125 830.67578125 C283.9278125 831.33578125 283.5978125 831.99578125 283.2578125 832.67578125 C283.9178125 832.67578125 284.5778125 832.67578125 285.2578125 832.67578125 C285.9178125 834.32578125 286.5778125 835.97578125 287.2578125 837.67578125 C288.9284375 837.64484375 288.9284375 837.64484375 290.6328125 837.61328125 C294.2578125 837.67578125 294.2578125 837.67578125 296.2578125 838.67578125 C299.09221645 839.09633306 301.91307022 839.46912821 304.7578125 839.80078125 C305.93537109 839.94966797 305.93537109 839.94966797 307.13671875 840.1015625 C311.30965789 840.76358769 311.30965789 840.76358769 315.2578125 839.67578125 C315.2578125 840.33578125 315.2578125 840.99578125 315.2578125 841.67578125 C316.49660156 841.6396875 317.73539063 841.60359375 319.01171875 841.56640625 C324.84632525 841.57097793 330.45510803 842.44654841 336.1953125 843.42578125 C337.23494141 843.58304688 338.27457031 843.7403125 339.34570312 843.90234375 C340.83166992 844.15371094 340.83166992 844.15371094 342.34765625 844.41015625 C343.69138306 844.63010254 343.69138306 844.63010254 345.06225586 844.85449219 C347.2578125 845.67578125 347.2578125 845.67578125 348.56469727 847.75488281 C348.79342529 848.3887793 349.02215332 849.02267578 349.2578125 849.67578125 C316.24704884 866.01527985 264.49836882 863.24715298 228.51953125 864.2265625 C227.76390207 864.24737696 227.0082729 864.26819141 226.22974586 864.28963661 C201.52165793 864.94462416 176.80125812 864.86320133 152.08638763 864.86089242 C147.34280455 864.86119443 142.59927907 864.86932496 137.85571289 864.8815918 C109.09606747 864.95422196 80.36529905 864.80209991 51.62109375 863.75 C49.91066674 863.68757646 49.91066674 863.68757646 48.16568565 863.62389183 C-31.01108515 860.65988854 -31.01108515 860.65988854 -62.7421875 851.67578125 C-63.0721875 850.35578125 -63.4021875 849.03578125 -63.7421875 847.67578125 C-59.90236125 843.82522923 -55.2582321 843.74339941 -50.1171875 843.11328125 C-49.18511475 842.99033691 -48.25304199 842.86739258 -47.29272461 842.74072266 C-44.44420688 842.37059679 -41.59394807 842.01995064 -38.7421875 841.67578125 C-37.91122559 841.57378418 -37.08026367 841.47178711 -36.22412109 841.36669922 C-25.12983806 840.01952 -13.92781458 838.67578125 -2.7421875 838.67578125 C-1.9171875 838.51078125 -1.0921875 838.34578125 -0.2421875 838.17578125 C2.71521854 837.75329467 5.288043 837.64164597 8.2578125 837.67578125 C17.9330643 837.77400716 27.59773367 837.16059033 37.2578125 836.67578125 C38.26278102 833.66087568 38.36116553 831.63396433 38.3203125 828.48828125 C38.31128906 827.58722656 38.30226563 826.68617188 38.29296875 825.7578125 C38.27556641 824.72720703 38.27556641 824.72720703 38.2578125 823.67578125 C38.5878125 823.67578125 38.9178125 823.67578125 39.2578125 823.67578125 C39.25559189 822.69623978 39.25337128 821.7166983 39.25108337 820.70747375 C39.22352918 808.13441924 39.20594736 795.56136126 39.1953125 782.98828125 C39.19445648 781.98342304 39.19360046 780.97856483 39.19271851 779.94325638 C39.16606355 744.5100739 39.47450308 709.1006979 40.2578125 673.67578125 C39.48002441 673.37486572 38.70223633 673.0739502 37.90087891 672.76391602 C29.9710989 669.49927261 23.22166941 663.12669401 16.703125 657.69140625 C14.32359081 655.67945431 14.32359081 655.67945431 11.9375 654.03515625 C11.38320313 653.5865625 10.82890625 653.13796875 10.2578125 652.67578125 C10.2578125 652.01578125 10.2578125 651.35578125 10.2578125 650.67578125 C9.45923828 650.37800781 9.45923828 650.37800781 8.64453125 650.07421875 C5.17867203 648.04348618 2.76352247 645.25200681 0.0703125 642.30078125 C-0.50050049 641.68170898 -1.07131348 641.06263672 -1.65942383 640.42480469 C-6.12447797 635.51280633 -10.15665532 630.3863157 -14.03515625 625.00390625 C-15.68070835 622.63584101 -15.68070835 622.63584101 -17.7421875 620.67578125 C-17.7421875 619.68578125 -17.7421875 618.69578125 -17.7421875 617.67578125 C-18.33644531 617.95292969 -18.93070312 618.23007812 -19.54296875 618.515625 C-30.73437546 623.40642638 -41.8317612 623.91593627 -53.40625 619.70703125 C-64.57646217 614.58879162 -71.36580979 607.11083269 -75.7421875 595.67578125 C-79.37281594 584.90196516 -79.70944329 573.40660857 -80.49267578 562.1484375 C-80.69354386 559.64282526 -80.69354386 559.64282526 -81.33154297 557.109375 C-81.76738196 554.52647185 -81.47364516 553.15085893 -80.7421875 550.67578125 C-80.66714264 548.57869426 -80.59625476 546.48130862 -80.55419922 544.38330078 C-79.7312857 510.11251649 -71.13197125 470.93408845 -50.984375 442.49609375 C-47.13075964 433.74669033 -48.80471431 422.84010569 -49.2421875 413.55078125 C-49.36290985 410.94418975 -49.47619269 408.33757714 -49.5859375 405.73046875 C-49.63943359 404.59077637 -49.69292969 403.45108398 -49.74804688 402.27685547 C-49.7421875 399.67578125 -49.7421875 399.67578125 -48.7421875 398.67578125 C-48.83819128 396.12967266 -48.99455681 393.6035299 -49.171875 391.0625 C-50.08690174 375.64355061 -49.89308609 360.19079927 -49.87255859 344.7512207 C-49.86677664 340.3171859 -49.87020744 335.88321053 -49.87613106 331.44917774 C-49.87972844 328.01868736 -49.87860338 324.58821135 -49.87600327 321.15772057 C-49.87533608 319.52017904 -49.87615516 317.88263621 -49.87848282 316.24509621 C-49.88100485 313.97952359 -49.87717916 311.71405139 -49.87158203 309.44848633 C-49.87078644 308.1608992 -49.86999084 306.87331207 -49.86917114 305.54670715 C-49.7421875 302.67578125 -49.7421875 302.67578125 -48.7421875 301.67578125 C-48.56160278 300.17958872 -48.44188606 298.67597728 -48.34765625 297.171875 C-48.2815918 296.21579346 -48.21552734 295.25971191 -48.14746094 294.2746582 C-48.0755957 293.23140381 -48.00373047 292.18814941 -47.9296875 291.11328125 C-44.54658054 247.49536653 -30.90842328 207.27088695 -2.88671875 173.27734375 C-1.54837887 171.73266318 -1.54837887 171.73266318 -1.7421875 169.67578125 C-0.9790625 169.24265625 -0.2159375 168.80953125 0.5703125 168.36328125 C3.39721236 166.8709129 3.39721236 166.8709129 4.7578125 164.17578125 C6.56916777 161.15685579 8.24385663 160.45675517 11.2578125 158.67578125 C12.26007382 157.69892937 13.23632975 156.69515334 14.1953125 155.67578125 C24.18629611 145.47039885 36.14243892 137.95351016 48.39111328 130.77734375 C49.99554322 129.83054962 51.58001223 128.85007375 53.16015625 127.86328125 C55.2578125 126.67578125 55.2578125 126.67578125 57.2578125 126.67578125 C55.18167207 119.46392503 52.48738105 112.74778609 49.1328125 106.05078125 C48.60977539 105.00277344 48.60977539 105.00277344 48.07617188 103.93359375 C46.67116448 101.1831361 45.45540625 98.873375 43.2578125 96.67578125 C42.95359375 95.67289062 42.649375 94.67 42.3359375 93.63671875 C40.60803711 90.52186944 40.60803711 90.52186944 37.97460938 90.00097656 C34.98016625 89.62745588 32.02257808 89.43153316 29.0078125 89.30078125 C27.98300781 89.23246094 26.95820313 89.16414063 25.90234375 89.09375 C21.73731806 88.83109072 17.63453787 88.66725454 13.4609375 88.76171875 C9.73652893 88.66179559 6.82221102 87.77111029 3.2578125 86.67578125 C1.42100212 86.2421521 -0.41923619 85.82292021 -2.26171875 85.4140625 C-19.36409415 81.56056087 -35.13799105 77.00349848 -49.9296875 67.42578125 C-50.67283203 66.94753906 -51.41597656 66.46929687 -52.18164062 65.9765625 C-58.84838641 61.66450431 -65.2426845 57.46473178 -70.7421875 51.67578125 C-72.134375 50.34546875 -72.134375 50.34546875 -73.5546875 48.98828125 C-75.7421875 46.67578125 -75.7421875 46.67578125 -75.7421875 44.67578125 C-76.4021875 44.67578125 -77.0621875 44.67578125 -77.7421875 44.67578125 C-79.02319336 43.19458008 -79.02319336 43.19458008 -80.45703125 41.1328125 C-80.97845703 40.38837891 -81.49988281 39.64394531 -82.03710938 38.87695312 C-82.57916016 38.08869141 -83.12121094 37.30042969 -83.6796875 36.48828125 C-84.21787109 35.71935547 -84.75605469 34.95042969 -85.31054688 34.15820312 C-92.7421875 23.48266511 -92.7421875 23.48266511 -92.7421875 20.67578125 C-93.4021875 20.34578125 -94.0621875 20.01578125 -94.7421875 19.67578125 C-95.61181641 17.90991211 -95.61181641 17.90991211 -96.46875 15.640625 C-96.778125 14.83173828 -97.0875 14.02285156 -97.40625 13.18945312 C-97.72335937 12.33931641 -98.04046875 11.48917969 -98.3671875 10.61328125 C-98.69203125 9.75927734 -99.016875 8.90527344 -99.3515625 8.02539062 C-100.15473865 5.91114753 -100.95128964 3.7946415 -101.7421875 1.67578125 C-102.4021875 1.67578125 -103.0621875 1.67578125 -103.7421875 1.67578125 C-103.81566406 0.7321875 -103.81566406 0.7321875 -103.890625 -0.23046875 C-104.25554267 -4.40814686 -104.66862719 -8.40452175 -105.8046875 -12.44921875 C-106.822293 -16.65532147 -106.89574614 -20.02457677 -106.7421875 -24.32421875 C-70.27865451 -33.20304593 -28.74671322 -24.36509169 0 0 Z M115.2578125 702.67578125 C113.30415944 704.62943431 114.13759126 707.60977877 114.13339233 710.20979309 C114.13698761 711.15062241 114.14058289 712.09145172 114.14428711 713.06079102 C114.14414108 714.04604767 114.14399506 715.03130432 114.1438446 716.04641724 C114.14454418 719.32002932 114.15233865 722.59358529 114.16015625 725.8671875 C114.16202027 728.13020293 114.16344425 730.39321876 114.16444397 732.65623474 C114.1682704 738.62557073 114.17810175 744.59488257 114.18914795 750.56420898 C114.19935938 756.65022454 114.20394101 762.73624398 114.20898438 768.82226562 C114.21972391 780.77344814 114.23680182 792.72461269 114.2578125 804.67578125 C115.48213989 804.86406494 115.48213989 804.86406494 116.73120117 805.05615234 C118.34345581 805.31259521 118.34345581 805.31259521 119.98828125 805.57421875 C121.05199951 805.74099121 122.11571777 805.90776367 123.21166992 806.07958984 C130.22168181 807.45159025 135.17159127 810.64346571 139.734375 816.125 C142.20647019 820.26417476 143.13894535 824.72313948 144.140625 829.40625 C145.47244433 833.30391706 147.03577686 835.14143382 150.2578125 837.67578125 C153.95213761 837.5296523 153.95213761 837.5296523 157.2578125 836.67578125 C157.5878125 837.00578125 157.9178125 837.33578125 158.2578125 837.67578125 C160.25735996 837.71832481 162.25822886 837.71658908 164.2578125 837.67578125 C164.9178125 837.67578125 165.5778125 837.67578125 166.2578125 837.67578125 C168.25993479 837.35544168 170.26020945 837.02319048 172.2578125 836.67578125 C171.76025158 833.91936709 171.76025158 833.91936709 170.2578125 831.67578125 C170.9178125 830.68578125 171.5778125 829.69578125 172.2578125 828.67578125 C172.55368778 826.2651829 172.55368778 826.2651829 172.49832153 823.53157043 C172.50107086 822.46726303 172.50382019 821.40295563 172.50665283 820.30639648 C172.49946228 819.13898926 172.49227173 817.97158203 172.48486328 816.76879883 C172.48515533 815.53941086 172.48544739 814.31002289 172.48574829 813.04338074 C172.48459279 809.67166928 172.4745549 806.30020202 172.46060038 802.92853379 C172.44810704 799.40513721 172.44692362 795.88173746 172.44454956 792.35832214 C172.43833068 785.68602238 172.42191435 779.01378808 172.40185058 772.34151715 C172.37950427 764.74547073 172.36850135 757.1494212 172.35845971 749.55335009 C172.33754846 733.92745589 172.30236458 718.30162701 172.2578125 702.67578125 C170.96002869 702.74642792 169.66224487 702.81707458 168.32513428 702.88986206 C166.60185024 702.98245577 164.87856313 703.07499221 163.15527344 703.16748047 C162.30234711 703.21406296 161.44942078 703.26064545 160.57064819 703.30863953 C154.21326814 703.64818185 147.87502037 703.83291526 141.5078125 703.80078125 C140.55116699 703.79957275 139.59452148 703.79836426 138.60888672 703.79711914 C131.64919671 703.75911042 124.75919712 703.41381658 117.828125 702.796875 C116.97992188 702.75691406 116.13171875 702.71695313 115.2578125 702.67578125 Z M172.2578125 828.67578125 C173.2578125 832.67578125 173.2578125 832.67578125 173.2578125 832.67578125 Z M40.2578125 830.67578125 C41.2578125 833.67578125 41.2578125 833.67578125 41.2578125 833.67578125 Z M41.2578125 833.67578125 C42.2578125 836.67578125 42.2578125 836.67578125 42.2578125 836.67578125 Z M146.2578125 833.67578125 C145.9278125 834.33578125 145.5978125 834.99578125 145.2578125 835.67578125 C146.2478125 837.16078125 146.2478125 837.16078125 147.2578125 838.67578125 C147.2578125 837.02578125 147.2578125 835.37578125 147.2578125 833.67578125 C146.9278125 833.67578125 146.5978125 833.67578125 146.2578125 833.67578125 Z M172.2578125 833.67578125 C172.9178125 834.33578125 173.5778125 834.99578125 174.2578125 835.67578125 C174.2578125 835.01578125 174.2578125 834.35578125 174.2578125 833.67578125 C173.5978125 833.67578125 172.9378125 833.67578125 172.2578125 833.67578125 Z " fill="#FEBB38" transform="translate(369.7421875,102.32421875)"/>
<path d="M0 0 C1.33301596 2.66603192 0.44275637 3.91351798 -0.390625 6.64453125 C-10.55664105 45.94009328 -3.93653941 92.21137996 15.9375 127.375 C24.94927658 142.50375686 36.28954627 156.85905788 50 168 C50.55606934 168.45584473 51.11213867 168.91168945 51.68505859 169.38134766 C82.24268389 194.17215032 121.75367479 206.20012237 160.8125 206.25 C161.50587463 206.25167175 162.19924927 206.25334351 162.91363525 206.25506592 C179.90024597 206.25749542 197.07677216 205.19033645 213.67041016 201.38037109 C216 201 216 201 222 201 C222 244.23 222 287.46 222 332 C229.425 333.485 229.425 333.485 237 335 C245.82167395 339.57420131 250.55914732 345.73263677 254 355 C254.35858516 356.32676508 254.7018576 357.65835921 255 359 C255.99 359 256.98 359 258 359 C257.67 359.66 257.34 360.32 257 361 C257.66 361 258.32 361 259 361 C259.66 362.65 260.32 364.3 261 366 C262.670625 365.9690625 262.670625 365.9690625 264.375 365.9375 C268 366 268 366 270 367 C272.83440395 367.42055181 275.65525772 367.79334696 278.5 368.125 C279.67755859 368.27388672 279.67755859 368.27388672 280.87890625 368.42578125 C285.05184539 369.08780644 285.05184539 369.08780644 289 368 C289 368.66 289 369.32 289 370 C290.23878906 369.96390625 291.47757813 369.9278125 292.75390625 369.890625 C298.58851275 369.89519668 304.19729553 370.77076716 309.9375 371.75 C310.97712891 371.90726563 312.01675781 372.06453125 313.08789062 372.2265625 C314.07853516 372.39414062 315.06917969 372.56171875 316.08984375 372.734375 C316.98566162 372.88100586 317.88147949 373.02763672 318.80444336 373.17871094 C321 374 321 374 322.30688477 376.07910156 C322.53561279 376.71299805 322.76434082 377.34689453 323 378 C289.98923634 394.3394986 238.24055632 391.57137173 202.26171875 392.55078125 C201.50608957 392.57159571 200.7504604 392.59241016 199.97193336 392.61385536 C175.26384543 393.26884291 150.54344562 393.18742008 125.82857513 393.18511117 C121.08499205 393.18541318 116.34146657 393.19354371 111.59790039 393.20581055 C82.83825497 393.27844071 54.10748655 393.12631866 25.36328125 392.07421875 C24.22299658 392.03260305 23.08271191 391.99098736 21.90787315 391.94811058 C-57.26889765 388.98410729 -57.26889765 388.98410729 -89 380 C-89.33 378.68 -89.66 377.36 -90 376 C-86.16017375 372.14944798 -81.5160446 372.06761816 -76.375 371.4375 C-75.44292725 371.31455566 -74.51085449 371.19161133 -73.55053711 371.06494141 C-70.70201938 370.69481554 -67.85176057 370.34416939 -65 370 C-64.16903809 369.89800293 -63.33807617 369.79600586 -62.48193359 369.69091797 C-51.38765056 368.34373875 -40.18562708 367 -29 367 C-28.175 366.835 -27.35 366.67 -26.5 366.5 C-23.54259396 366.07751342 -20.9697695 365.96586472 -18 366 C-8.3247482 366.09822591 1.33992117 365.48480908 11 365 C12.00496852 361.98509443 12.10335303 359.95818308 12.0625 356.8125 C12.05347656 355.91144531 12.04445313 355.01039063 12.03515625 354.08203125 C12.02355469 353.39496094 12.01195312 352.70789063 12 352 C12.33 352 12.66 352 13 352 C12.99777939 351.02045853 12.99555878 350.04091705 12.99327087 349.0316925 C12.96571668 336.45863799 12.94813486 323.88558001 12.9375 311.3125 C12.93664398 310.30764179 12.93578796 309.30278358 12.93490601 308.26747513 C12.90825105 272.83429265 13.21669058 237.42491665 14 202 C13.22221191 201.69908447 12.44442383 201.39816895 11.64306641 201.08813477 C3.7132864 197.82349136 -3.03614309 191.45091276 -9.5546875 186.015625 C-11.93422169 184.00367306 -11.93422169 184.00367306 -14.3203125 182.359375 C-14.87460937 181.91078125 -15.42890625 181.4621875 -16 181 C-16 180.34 -16 179.68 -16 179 C-16.53238281 178.80148437 -17.06476563 178.60296875 -17.61328125 178.3984375 C-21.07914047 176.36770493 -23.49429003 173.57622556 -26.1875 170.625 C-27.04371948 169.6963916 -27.04371948 169.6963916 -27.91723633 168.74902344 C-32.38229047 163.83702508 -36.41446782 158.71053445 -40.29296875 153.328125 C-41.93852085 150.96005976 -41.93852085 150.96005976 -44 149 C-44.34765625 146.5390625 -44.34765625 146.5390625 -44 144 C-42.49609375 142.5859375 -42.49609375 142.5859375 -40.4375 141.375 C-31.97349485 135.51760882 -27.68082515 125.68012524 -25 116 C-24.56151379 112.04676021 -24.64430085 108.18147854 -24.78515625 104.2109375 C-24.82118738 101.94531605 -24.85698684 99.6796909 -24.89257812 97.4140625 C-24.97248279 93.91768678 -25.06121294 90.42174425 -25.1574707 86.92578125 C-25.90895738 57.22194741 -20.73018934 30.84925181 -4 6 C-3.25475682 4.88181121 -2.50996082 3.76332424 -1.765625 2.64453125 C-1.18296875 1.77183594 -0.6003125 0.89914062 0 0 Z M89 231 C87.04634694 232.95365306 87.87977876 235.93399752 87.87557983 238.53401184 C87.87917511 239.47484116 87.88277039 240.41567047 87.88647461 241.38500977 C87.88632858 242.37026642 87.88618256 243.35552307 87.8860321 244.37063599 C87.88673168 247.64424807 87.89452615 250.91780404 87.90234375 254.19140625 C87.90420777 256.45442168 87.90563175 258.71743751 87.90663147 260.98045349 C87.9104579 266.94978948 87.92028925 272.91910132 87.93133545 278.88842773 C87.94154688 284.97444329 87.94612851 291.06046273 87.95117188 297.14648438 C87.96191141 309.09766689 87.97898932 321.04883144 88 333 C89.22432739 333.18828369 89.22432739 333.18828369 90.47338867 333.38037109 C92.08564331 333.63681396 92.08564331 333.63681396 93.73046875 333.8984375 C94.79418701 334.06520996 95.85790527 334.23198242 96.95385742 334.40380859 C103.96386931 335.775809 108.91377877 338.96768446 113.4765625 344.44921875 C115.94865769 348.58839351 116.88113285 353.04735823 117.8828125 357.73046875 C119.21463183 361.62813581 120.77796436 363.46565257 124 366 C127.69432511 365.85387105 127.69432511 365.85387105 131 365 C131.33 365.33 131.66 365.66 132 366 C133.99954746 366.04254356 136.00041636 366.04080783 138 366 C138.66 366 139.32 366 140 366 C142.00212229 365.67966043 144.00239695 365.34740923 146 365 C145.50243908 362.24358584 145.50243908 362.24358584 144 360 C144.66 359.01 145.32 358.02 146 357 C146.29587528 354.58940165 146.29587528 354.58940165 146.24050903 351.85578918 C146.24325836 350.79148178 146.24600769 349.72717438 146.24884033 348.63061523 C146.24164978 347.46320801 146.23445923 346.29580078 146.22705078 345.09301758 C146.22734283 343.86362961 146.22763489 342.63424164 146.22793579 341.36759949 C146.22678029 337.99588803 146.2167424 334.62442077 146.20278788 331.25275254 C146.19029454 327.72935596 146.18911112 324.20595621 146.18673706 320.68254089 C146.18051818 314.01024113 146.16410185 307.33800683 146.14403808 300.6657359 C146.12169177 293.06968948 146.11068885 285.47363995 146.10064721 277.87756884 C146.07973596 262.25167464 146.04455208 246.62584576 146 231 C144.70221619 231.07064667 143.40443237 231.14129333 142.06732178 231.21408081 C140.34403774 231.30667452 138.62075063 231.39921096 136.89746094 231.49169922 C136.04453461 231.53828171 135.19160828 231.5848642 134.31283569 231.63285828 C127.95545564 231.9724006 121.61720787 232.15713401 115.25 232.125 C114.29335449 232.1237915 113.33670898 232.12258301 112.35107422 232.12133789 C105.39138421 232.08332917 98.50138462 231.73803533 91.5703125 231.12109375 C90.72210938 231.08113281 89.87390625 231.04117188 89 231 Z M146 357 C147 361 147 361 147 361 Z M14 359 C15 362 15 362 15 362 Z M15 362 C16 365 16 365 16 365 Z M120 362 C119.67 362.66 119.34 363.32 119 364 C119.99 365.485 119.99 365.485 121 367 C121 365.35 121 363.7 121 362 C120.67 362 120.34 362 120 362 Z M146 362 C146.66 362.66 147.32 363.32 148 364 C148 363.34 148 362.68 148 362 C147.34 362 146.68 362 146 362 Z " fill="#FE9837" transform="translate(396,574)"/>
<path d="M0 0 C0.02505615 1.31081543 0.0501123 2.62163086 0.07592773 3.97216797 C0.17068681 8.87378335 0.27073528 13.77527942 0.37231445 18.67675781 C0.415406 20.79098706 0.45709706 22.90524537 0.49731445 25.01953125 C0.55564733 28.07300544 0.61915408 31.12633679 0.68359375 34.1796875 C0.70866249 35.57874832 0.70866249 35.57874832 0.73423767 37.006073 C0.85181047 42.31243236 1.20884478 47.53122352 1.77961731 52.80767822 C2.03993636 55.39727869 2.12928549 57.95641341 2.1328125 60.55859375 C2.13474609 61.51314453 2.13667969 62.46769531 2.13867188 63.45117188 C2.13416016 64.43666016 2.12964844 65.42214844 2.125 66.4375 C2.12306641 67.47068359 2.12113281 68.50386719 2.11914062 69.56835938 C2.06660191 79.06619167 1.62574535 88.52442759 1 98 C1.7734375 98.02578125 2.546875 98.0515625 3.34375 98.078125 C10.22779174 98.45299856 15.15918007 99.25305891 21 103 C21.33 103.99 21.66 104.98 22 106 C22.99 106.33 23.98 106.66 25 107 C29.26423084 111.45805951 30.34804791 116.00861166 31.875 121.84375 C33.10658545 125.2990314 34.37115515 127.44311258 37 130 C39.14609329 130.39061354 39.14609329 130.39061354 41.25 129.8125 C42.4875 129.544375 43.725 129.27625 45 129 C45 129.66 45 130.32 45 131 C47.64 130.34 50.28 129.68 53 129 C53 129.66 53 130.32 53 131 C54.32 131 55.64 131 57 131 C57.33 130.34 57.66 129.68 58 129 C58.66 128.67 59.32 128.34 60 128 C61.80638799 129.57077216 62.88605637 130.51397494 63.44140625 132.8828125 C64.46618379 136.76693438 66.9416635 139.47687238 70 142 C72.95956704 143.16268705 75.85441168 143.61871657 79 144 C80.175625 144.20625 81.35125 144.4125 82.5625 144.625 C83.7690625 144.810625 83.7690625 144.810625 85 145 C85 145.66 85 146.32 85 147 C93.66678624 146.9156085 102.33337578 146.8207299 110.999897 146.71247292 C115.02414759 146.66253373 119.04837223 146.61620355 123.07275391 146.578125 C126.9567365 146.54124204 130.84050077 146.49487405 134.72429657 146.44193649 C136.20580972 146.42340851 137.68736965 146.40829463 139.16895294 146.39665604 C141.2446985 146.37976598 143.3199458 146.3507253 145.39550781 146.31884766 C147.16755585 146.29886215 147.16755585 146.29886215 148.97540283 146.2784729 C151.91299411 146.00801058 153.49176487 145.45728908 156 144 C157.66014616 143.63557767 159.32706064 143.30027117 161 143 C164.12921424 142.33813354 164.12921424 142.33813354 165.1328125 139.890625 C165.46023438 139.01921875 165.78765625 138.1478125 166.125 137.25 C166.45757813 136.38890625 166.79015625 135.5278125 167.1328125 134.640625 C168.90376346 129.35278446 168.90376346 129.35278446 168 124 C168.99 124 169.98 124 171 124 C170.67 124.66 170.34 125.32 170 126 C170.66 126 171.32 126 172 126 C172.66 127.65 173.32 129.3 174 131 C175.670625 130.9690625 175.670625 130.9690625 177.375 130.9375 C181 131 181 131 183 132 C185.83440395 132.42055181 188.65525772 132.79334696 191.5 133.125 C192.28503906 133.22425781 193.07007813 133.32351563 193.87890625 133.42578125 C198.05184539 134.08780644 198.05184539 134.08780644 202 133 C202 133.66 202 134.32 202 135 C203.23878906 134.96390625 204.47757813 134.9278125 205.75390625 134.890625 C211.58851275 134.89519668 217.19729553 135.77076716 222.9375 136.75 C223.97712891 136.90726563 225.01675781 137.06453125 226.08789062 137.2265625 C227.07853516 137.39414062 228.06917969 137.56171875 229.08984375 137.734375 C229.98566162 137.88100586 230.88147949 138.02763672 231.80444336 138.17871094 C234 139 234 139 235.30688477 141.07910156 C235.53561279 141.71299805 235.76434082 142.34689453 236 143 C202.98923634 159.3394986 151.24055632 156.57137173 115.26171875 157.55078125 C114.50608957 157.57159571 113.7504604 157.59241016 112.97193336 157.61385536 C88.26384543 158.26884291 63.54344562 158.18742008 38.82857513 158.18511117 C34.08499205 158.18541318 29.34146657 158.19354371 24.59790039 158.20581055 C-4.16174503 158.27844071 -32.89251345 158.12631866 -61.63671875 157.07421875 C-62.77700342 157.03260305 -63.91728809 156.99098736 -65.09212685 156.94811058 C-144.26889765 153.98410729 -144.26889765 153.98410729 -176 145 C-176.33 143.68 -176.66 142.36 -177 141 C-173.16017375 137.14944798 -168.5160446 137.06761816 -163.375 136.4375 C-162.44292725 136.31455566 -161.51085449 136.19161133 -160.55053711 136.06494141 C-157.70201938 135.69481554 -154.85176057 135.34416939 -152 135 C-151.16903809 134.89800293 -150.33807617 134.79600586 -149.48193359 134.69091797 C-138.38765056 133.34373875 -127.18562708 132 -116 132 C-115.175 131.835 -114.35 131.67 -113.5 131.5 C-110.54259396 131.07751342 -107.9697695 130.96586472 -105 131 C-95.3247482 131.09822591 -85.66007883 130.48480908 -76 130 C-74.99503148 126.98509443 -74.89664697 124.95818308 -74.9375 121.8125 C-74.94652344 120.91144531 -74.95554687 120.01039063 -74.96484375 119.08203125 C-74.97644531 118.39496094 -74.98804688 117.70789063 -75 117 C-74.34 117.66 -73.68 118.32 -73 119 C-73.02784073 117.42931763 -73.02784073 117.42931763 -73.0562439 115.8269043 C-73.22229954 105.94004869 -73.31419381 96.05488683 -73.33421898 86.16662598 C-73.34687833 81.08295026 -73.38529618 76.0022354 -73.48339844 70.91943359 C-73.57719204 66.01007261 -73.60225317 61.10464918 -73.58046341 56.19448853 C-73.58409251 54.32527933 -73.61214214 52.45594727 -73.66541672 50.5874939 C-74.04850833 36.3444475 -74.04850833 36.3444475 -70.64535522 32.44965553 C-66.80927603 29.40229438 -62.54581629 27.72919021 -58 26 C-56.01599592 25.01343904 -54.03985912 24.01060173 -52.078125 22.98046875 C-50.13879798 22.04245598 -48.19599737 21.11159497 -46.25 20.1875 C-45.20158936 19.68613525 -44.15317871 19.18477051 -43.07299805 18.66821289 C-32.97727832 13.89295765 -22.71036194 9.55129968 -12.39453125 5.27734375 C-9.09005844 3.90437045 -3.53699748 0 0 0 Z M-73 124 C-72 127 -72 127 -72 127 Z M-72 127 C-71 130 -71 130 -71 130 Z M33 127 C32.67 127.66 32.34 128.32 32 129 C32.99 130.485 32.99 130.485 34 132 C34 130.35 34 128.7 34 127 C33.67 127 33.34 127 33 127 Z " fill="#FDAF2F" transform="translate(483,809)"/>
<path d="M0 0 C0.66 0 1.32 0 2 0 C2 43.23 2 86.46 2 131 C6.95 131.99 11.9 132.98 17 134 C25.64712817 138.48369609 30.84149277 144.74612793 34 154 C35.34392799 161.70990269 36.02212961 169.96850723 32 177 C29.0625 178.5625 29.0625 178.5625 26 179 C25.278125 179.185625 24.55625 179.37125 23.8125 179.5625 C22.9153125 179.7790625 22.9153125 179.7790625 22 180 C21.01 180.33 20.02 180.66 19 181 C16.83786607 181.08952331 14.67301589 181.1175854 12.5090332 181.11352539 C11.52814224 181.11374443 11.52814224 181.11374443 10.5274353 181.1139679 C8.36851674 181.11327188 6.20968472 181.10549408 4.05078125 181.09765625 C2.55291287 181.09579096 1.05504389 181.09436758 -0.44282532 181.09336853 C-4.38345019 181.08955207 -8.32403814 181.0797292 -12.26464844 181.06866455 C-16.28645325 181.05843172 -20.30826404 181.0538669 -24.33007812 181.04882812 C-32.22006901 181.03810616 -40.11002991 181.02104017 -48 181 C-48 180.34 -48 179.68 -48 179 C-48.65226563 178.93941406 -49.30453125 178.87882813 -49.9765625 178.81640625 C-51.78357479 178.64316761 -53.58957395 178.4591042 -55.39453125 178.265625 C-57.36275945 178.06496605 -59.33723158 177.92430765 -61.3125 177.8125 C-65.36413226 176.58758792 -66.63471491 174.47836042 -69 171 C-69 170.01 -69 169.02 -69 168 C-69.66 167.67 -70.32 167.34 -71 167 C-71.625 163.9375 -71.625 163.9375 -72 161 C-72.99 161.33 -73.98 161.66 -75 162 C-75 161.34 -75 160.68 -75 160 C-76.65 159.67 -78.3 159.34 -80 159 C-79.360625 158.690625 -78.72125 158.38125 -78.0625 158.0625 C-76.06389179 157.1654837 -76.06389179 157.1654837 -75 156 C-74.89174421 154.35549337 -74.85314732 152.70636111 -74.84178162 151.05833435 C-74.82709839 149.45337601 -74.82709839 149.45337601 -74.81211853 147.81599426 C-74.80636307 146.63204575 -74.8006076 145.44809723 -74.79467773 144.22827148 C-74.77982834 142.36999725 -74.77982834 142.36999725 -74.76467896 140.47418213 C-74.73842776 137.06733026 -74.71659204 133.66050263 -74.69667697 130.25361133 C-74.67485558 126.69680391 -74.64744814 123.14003976 -74.62062073 119.58326721 C-74.57064165 112.84366558 -74.52572224 106.10403999 -74.48259836 99.36439139 C-74.43327046 91.69338528 -74.37833589 84.02242258 -74.32291877 76.35145843 C-74.2090187 60.56767903 -74.10219723 44.78385977 -74 29 C-73.2318396 28.83297073 -72.4636792 28.66594147 -71.67224121 28.49385071 C-68.14527588 27.72478609 -64.61951646 26.95032269 -61.09375 26.17578125 C-59.88557617 25.91317505 -58.67740234 25.65056885 -57.43261719 25.38000488 C-38.43962025 21.19548944 -16.12513089 14.88593553 -1 2 C-0.67 1.34 -0.34 0.68 0 0 Z M-74 156 C-73 160 -73 160 -73 160 Z " fill="#F67F32" transform="translate(616,775)"/>
<path d="M0 0 C1.67897564 1.50291285 3.34261915 3.02318117 4.98828125 4.5625 C7.06393803 6.49525442 9.20032318 8.30372215 11.3828125 10.11328125 C28.30470788 24.89014764 39.26834431 47.46879617 48.2578125 67.67578125 C48.57975586 68.39427246 48.90169922 69.11276367 49.23339844 69.85302734 C50.11672059 71.84821372 50.97431869 73.85202159 51.8203125 75.86328125 C52.29597656 76.99121094 52.77164063 78.11914062 53.26171875 79.28125 C54.44783485 83.32334761 54.43652628 86.48288108 54.2578125 90.67578125 C50.66103326 87.2309786 47.71808107 83.70174651 44.7578125 79.67578125 C39.59728594 72.90862312 33.76574625 66.87970677 27.7578125 60.86328125 C26.89220703 59.99251953 26.02660156 59.12175781 25.13476562 58.22460938 C19.14514859 52.29808838 12.84485503 46.92379449 6.2578125 41.67578125 C5.25492187 40.83789062 4.25203125 40 3.21875 39.13671875 C-14.90547728 24.51687378 -36.22472537 11.25913883 -59.7421875 8.67578125 C-58.72125 9.22363281 -57.7003125 9.77148438 -56.6484375 10.3359375 C-30.27052278 24.65034844 -5.17707691 40.54783536 16.2578125 61.67578125 C17.58450511 62.96367591 18.91133061 64.25143369 20.23828125 65.5390625 C36.24701118 81.18734134 36.24701118 81.18734134 39.2578125 86.67578125 C38.828125 88.80395508 38.828125 88.80395508 38.2578125 90.67578125 C37.65831787 90.61519531 37.05882324 90.55460937 36.44116211 90.4921875 C33.69289005 90.21648547 30.94411948 89.94609582 28.1953125 89.67578125 C27.25236328 89.58039063 26.30941406 89.485 25.33789062 89.38671875 C21.3600382 88.99863559 17.51273755 88.67152807 13.51171875 88.73828125 C9.75124144 88.66605119 6.85572301 87.78140843 3.2578125 86.67578125 C1.42100212 86.2421521 -0.41923619 85.82292021 -2.26171875 85.4140625 C-19.36409415 81.56056087 -35.13799105 77.00349848 -49.9296875 67.42578125 C-50.67283203 66.94753906 -51.41597656 66.46929687 -52.18164062 65.9765625 C-58.84838641 61.66450431 -65.2426845 57.46473178 -70.7421875 51.67578125 C-72.134375 50.34546875 -72.134375 50.34546875 -73.5546875 48.98828125 C-75.7421875 46.67578125 -75.7421875 46.67578125 -75.7421875 44.67578125 C-76.4021875 44.67578125 -77.0621875 44.67578125 -77.7421875 44.67578125 C-79.02319336 43.19458008 -79.02319336 43.19458008 -80.45703125 41.1328125 C-80.97845703 40.38837891 -81.49988281 39.64394531 -82.03710938 38.87695312 C-82.57916016 38.08869141 -83.12121094 37.30042969 -83.6796875 36.48828125 C-84.21787109 35.71935547 -84.75605469 34.95042969 -85.31054688 34.15820312 C-92.7421875 23.48266511 -92.7421875 23.48266511 -92.7421875 20.67578125 C-93.4021875 20.34578125 -94.0621875 20.01578125 -94.7421875 19.67578125 C-95.61181641 17.90991211 -95.61181641 17.90991211 -96.46875 15.640625 C-96.778125 14.83173828 -97.0875 14.02285156 -97.40625 13.18945312 C-97.72335937 12.33931641 -98.04046875 11.48917969 -98.3671875 10.61328125 C-98.69203125 9.75927734 -99.016875 8.90527344 -99.3515625 8.02539062 C-100.15473865 5.91114753 -100.95128964 3.7946415 -101.7421875 1.67578125 C-102.4021875 1.67578125 -103.0621875 1.67578125 -103.7421875 1.67578125 C-103.81566406 0.7321875 -103.81566406 0.7321875 -103.890625 -0.23046875 C-104.25554267 -4.40814686 -104.66862719 -8.40452175 -105.8046875 -12.44921875 C-106.822293 -16.65532147 -106.89574614 -20.02457677 -106.7421875 -24.32421875 C-70.27865451 -33.20304593 -28.74671322 -24.36509169 0 0 Z " fill="#CDD54F" transform="translate(369.7421875,102.32421875)"/>
<path d="M0 0 C0.66 0 1.32 0 2 0 C3.33858524 2.28874173 4.67101014 4.58069656 6 6.875 C6.3815625 7.52597656 6.763125 8.17695312 7.15625 8.84765625 C10 13.7734375 10 13.7734375 10 16 C10.66 16.33 11.32 16.66 12 17 C12.95800781 18.69555664 12.95800781 18.69555664 13.953125 20.91015625 C14.32252197 21.72814697 14.69191895 22.5461377 15.07250977 23.38891602 C15.65536743 24.71234009 15.65536743 24.71234009 16.25 26.0625 C16.84735962 27.40622681 16.84735962 27.40622681 17.45678711 28.77709961 C19.96719812 34.48561534 22.35506771 40.23003716 24.5625 46.0625 C24.81354492 46.72193604 25.06458984 47.38137207 25.32324219 48.06079102 C26.35470241 50.86326992 27 52.98607769 27 56 C27.99 56.495 27.99 56.495 29 57 C29.7300513 59.58892141 30.33292296 62.12016774 30.875 64.75 C31.04427002 65.54188721 31.21354004 66.33377441 31.38793945 67.1496582 C38.13701255 99.1168248 38.13701255 99.1168248 38.203125 112.74609375 C38.20882507 113.67486832 38.21452515 114.60364288 38.22039795 115.56056213 C38.2298108 117.52302934 38.23636709 119.48551208 38.24023438 121.44799805 C38.24986857 124.39726749 38.28089805 127.34581768 38.3125 130.29492188 C38.41122981 147.7244538 37.7446005 165.74529467 25.375 179.375 C12.72789496 190.96013439 -1.89952533 191.33620481 -18 191 C-18 190.34 -18 189.68 -18 189 C-18.56589844 188.76925781 -19.13179687 188.53851562 -19.71484375 188.30078125 C-20.44832031 187.97464844 -21.18179688 187.64851562 -21.9375 187.3125 C-22.66839844 186.99925781 -23.39929688 186.68601562 -24.15234375 186.36328125 C-26 185 -26 185 -26.9765625 182.75390625 C-27.00959485 178.87260458 -25.50250787 176.88794061 -23.4375 173.625 C-13.05569853 156.44586016 -7.87412622 136.70571373 -4.1875 117.125 C-3.9805249 116.0328418 -3.7735498 114.94068359 -3.56030273 113.81542969 C-0.9005664 98.92986535 -0.81569659 84.01583514 -0.68359375 68.9453125 C-0.66297436 66.94749572 -0.64197677 64.94968282 -0.62062073 62.95187378 C-0.56591402 57.7406532 -0.51628217 52.5293967 -0.46777344 47.31811523 C-0.41717853 41.98157626 -0.36169253 36.64508827 -0.30664062 31.30859375 C-0.19968961 20.87243957 -0.09810965 10.43624078 0 0 Z " fill="#FD9637" transform="translate(706,534)"/>
<path d="M0 0 C0.99 0.495 0.99 0.495 2 1 C1.60167969 1.56847656 1.20335937 2.13695312 0.79296875 2.72265625 C-2.87343957 8.06309966 -2.87343957 8.06309966 -5.6875 13.875 C-7 17 -7 17 -8.34375 18.2734375 C-39.39462217 50.64250708 -38.25473936 116.56332866 -37.98527336 157.92242813 C-37.94605289 165.16555666 -37.95468509 172.408817 -37.9552325 179.65203309 C-37.9549674 187.26219538 -37.93775649 194.87153296 -37.87329102 202.48144531 C-37.81615332 209.24287679 -37.81164705 216.00278812 -37.83798409 222.76440048 C-37.83921416 225.32316247 -37.82285806 227.88199928 -37.78806877 230.44052505 C-37.5039163 252.46283465 -37.5039163 252.46283465 -42.51978397 258.53240013 C-44.53293909 260.55174672 -46.7349866 262.27308803 -49 264 C-50.83673056 266.22374186 -52.3382199 268.52815624 -53.9375 270.9375 C-56.22415424 274.35295633 -58.49456202 277.74057442 -61 281 C-62.03351054 273.01218969 -62.35440811 265.04612946 -62.625 257 C-62.67689559 255.65233651 -62.72897756 254.30468018 -62.78125 252.95703125 C-62.84699219 251.06017578 -62.84699219 251.06017578 -62.9140625 249.125 C-62.9548291 247.97257813 -62.9955957 246.82015625 -63.03759766 245.6328125 C-63 243 -63 243 -62 242 C-62.09600378 239.45389141 -62.25236931 236.92774865 -62.4296875 234.38671875 C-63.34471424 218.96776936 -63.15089859 203.51501802 -63.13037109 188.07543945 C-63.12458914 183.64140465 -63.12801994 179.20742928 -63.13394356 174.77339649 C-63.13754094 171.34290611 -63.13641588 167.9124301 -63.13381577 164.48193932 C-63.13314858 162.84439779 -63.13396766 161.20685496 -63.13629532 159.56931496 C-63.13881735 157.30374234 -63.13499166 155.03827014 -63.12939453 152.77270508 C-63.12859894 151.48511795 -63.12780334 150.19753082 -63.12698364 148.8709259 C-63 146 -63 146 -62 145 C-61.81941528 143.50380747 -61.69969856 142.00019603 -61.60546875 140.49609375 C-61.50637207 139.06197144 -61.50637207 139.06197144 -61.40527344 137.59887695 C-61.3334082 136.55562256 -61.26154297 135.51236816 -61.1875 134.4375 C-57.80439304 90.81958528 -44.16623578 50.5951057 -16.14453125 16.6015625 C-14.80619137 15.05688193 -14.80619137 15.05688193 -15 13 C-14.236875 12.566875 -13.47375 12.13375 -12.6875 11.6875 C-9.86060014 10.19513165 -9.86060014 10.19513165 -8.5 7.5 C-6.725022 4.54170333 -4.99834344 3.61449262 -2 2 C-1.34 1.34 -0.68 0.68 0 0 Z " fill="#FE9C39" transform="translate(383,259)"/>
<path d="M0 0 C2.4375 1.5 2.4375 1.5 4 4 C4.95631729 8.94097265 4.95631729 8.94097265 4 12 C1.71767556 14.59843586 -1.05514374 16.22476483 -4 18 C-5.87623505 19.18554768 -7.75119826 20.37311011 -9.625 21.5625 C-11.02878906 22.44808594 -11.02878906 22.44808594 -12.4609375 23.3515625 C-24.80952143 31.36864314 -34.36820668 44.5044584 -40 58 C-40 58.66 -40 59.32 -40 60 C-40.66 60 -41.32 60 -42 60 C-48.45010731 81.18013962 -49.68647921 102.0498244 -48 124 C-49.5747294 124.72726052 -51.16024279 125.43120422 -52.75 126.125 C-53.63171875 126.51945312 -54.5134375 126.91390625 -55.421875 127.3203125 C-58 128 -58 128 -60.1796875 127.51953125 C-62.86963593 125.27405928 -63.34893607 122.88447294 -64.375 119.5625 C-66.78702499 112.3114899 -69.49885065 104.50114935 -75 99 C-75.83307343 97.40642051 -76.64183347 95.80008231 -77.4375 94.1875 C-87.64753009 75.39618272 -106.23394976 58.63130073 -123.39208984 46.17236328 C-124.94119975 45.04287258 -126.46537261 43.87942094 -127.98828125 42.71484375 C-136.01685282 36.72590929 -144.51185779 31.51294813 -153.0625 26.3125 C-153.65315247 25.95250916 -154.24380493 25.59251831 -154.85235596 25.22161865 C-163.09948907 20.20730908 -171.45981985 15.49553099 -180 11 C-180 10.67 -180 10.34 -180 10 C-141.20740649 10.87085414 -104.34427803 47.48090594 -79.18603516 73.64404297 C-73.88473342 79.35741819 -69.32071097 85.51893355 -65 92 C-64.90203125 90.94683594 -64.8040625 89.89367187 -64.703125 88.80859375 C-63.25217506 74.37492798 -60.03720803 61.2868062 -54 48 C-54.66 47.67 -55.32 47.34 -56 47 C-54.86635679 45.86635679 -53.72061573 44.74377325 -52.5390625 43.66015625 C-50.74842615 41.72863227 -49.64206078 39.74562533 -48.375 37.4375 C-45.5115568 32.54608207 -42.12250162 28.5401265 -38.24609375 24.421875 C-36.63114272 22.6805365 -35.09173985 20.86800855 -33.60546875 19.015625 C-30.9429324 15.93394874 -28.11244065 13.43612291 -24.875 11 C-24.31022949 10.57283691 -23.74545898 10.14567383 -23.16357422 9.70556641 C-7.90045091 -1.61233692 -7.90045091 -1.61233692 0 0 Z " fill="#A9A738" transform="translate(488,100)"/>
<path d="M0 0 C1.04796249 -0.00953201 2.09592499 -0.01906403 3.17564392 -0.02888489 C4.87256126 -0.02751778 4.87256126 -0.02751778 6.60375977 -0.02612305 C8.34774803 -0.03255074 8.34774803 -0.03255074 10.12696838 -0.03910828 C12.58740589 -0.04485496 15.04786038 -0.04534936 17.50830078 -0.04101562 C21.27674295 -0.03785724 25.04439918 -0.0613063 28.81274414 -0.08666992 C31.20141502 -0.08894299 33.59008802 -0.08964638 35.97875977 -0.08862305 C37.10801376 -0.09783279 38.23726776 -0.10704254 39.40074158 -0.11653137 C40.97741356 -0.10718819 40.97741356 -0.10718819 42.5859375 -0.09765625 C43.50954575 -0.09828568 44.43315399 -0.0989151 45.38475037 -0.0995636 C48.34196425 0.34794617 49.71665367 1.21180417 51.85766602 3.2746582 C53.14152432 9.64674903 52.38572133 15.96467961 49.03344727 21.5402832 C48.64543945 22.11262695 48.25743164 22.6849707 47.85766602 23.2746582 C47.19766602 24.3059082 46.53766602 25.3371582 45.85766602 26.3996582 C40.8557904 32.12280741 31.92615994 35.77355913 24.44750977 36.51293945 C15.31184137 36.76857671 7.57419143 34.84435688 0.42016602 28.9621582 C-5.32928138 23.42434691 -8.24552266 17.21984605 -9.14233398 9.2746582 C-8.95483398 5.3371582 -8.95483398 5.3371582 -8.14233398 2.2746582 C-4.84482716 0.07632032 -3.83326122 0.01913859 0 0 Z " fill="#362A26" transform="translate(450.142333984375,415.725341796875)"/>
<path d="M0 0 C1.51176819 -0.00934319 1.51176819 -0.00934319 3.05407715 -0.01887512 C4.13644653 -0.00966537 5.21881592 -0.00045563 6.33398438 0.0090332 C7.45083618 0.0085347 8.56768799 0.00803619 9.71838379 0.00752258 C12.07871277 0.00986213 14.43904428 0.01958359 16.79931641 0.03613281 C20.41396372 0.05972458 24.02787339 0.0566926 27.64257812 0.05004883 C29.93555128 0.05562567 32.22852132 0.06273559 34.52148438 0.0715332 C35.60385376 0.0706218 36.68622314 0.06971039 37.8013916 0.06877136 C39.31315979 0.08306938 39.31315979 0.08306938 40.85546875 0.09765625 C41.74053101 0.10226364 42.62559326 0.10687103 43.53747559 0.11161804 C46.121908 0.39349223 47.73999416 0.98378639 49.92773438 2.37231445 C52.33299798 7.18284166 50.9105362 12.02222347 49.30273438 16.87231445 C45.81938774 25.73239475 40.61452891 30.55012486 31.92773438 34.37231445 C24.81177579 36.78502144 13.6492539 36.73140209 6.76367188 33.54418945 C-0.181256 29.11125677 -6.19375939 23.54454922 -8.64648438 15.4855957 C-9.13369106 13.06744141 -9.31409289 10.77592093 -9.38476562 8.30981445 C-9.42214844 7.45258789 -9.45953125 6.59536133 -9.49804688 5.7121582 C-9.07226562 3.37231445 -9.07226562 3.37231445 -7.3626709 1.74934387 C-4.66324865 0.1264067 -3.1301476 -0.00222605 0 0 Z " fill="#382B26" transform="translate(607.072265625,415.627685546875)"/>
<path d="M0 0 C3.1471273 1.00945593 4.50107375 1.8574243 7 3.875 C17.46843462 11.99537452 29.54028191 12.37175069 42.3125 11.0625 C48.82183521 9.64604319 53.90536599 6.26103271 59.20703125 2.33203125 C61.64112105 0.86435187 63.48161434 0.29498819 66.3125 0.0625 C69.3125 2.0625 69.3125 2.0625 70.0625 5.1875 C69.07876825 10.27011406 67.02768532 11.99355943 63.09375 15.19921875 C53.1516626 21.85985876 43.33819172 23.26804751 31.6875 23.375 C30.65753906 23.40400391 29.62757813 23.43300781 28.56640625 23.46289062 C16.34593772 23.56280641 4.51976185 19.1219699 -4.3125 10.5 C-5.89882565 7.68787725 -6.27198849 6.23543754 -5.6875 3.0625 C-4.04577123 0.32628538 -3.19538458 0.07431127 0 0 Z " fill="#332624" transform="translate(521.6875,459.9375)"/>
<path d="M0 0 C0 0.99 0 1.98 0 3 C-1.16917969 3.47050781 -2.33835937 3.94101562 -3.54296875 4.42578125 C-5.09123387 5.05447072 -6.63940608 5.68338906 -8.1875 6.3125 C-9.34088867 6.7755957 -9.34088867 6.7755957 -10.51757812 7.24804688 C-14.57941925 8.90416236 -18.2451906 10.72051024 -22 13 C-24.50700128 14.17223727 -27.05795631 15.21716602 -29.625 16.25 C-30.29273438 16.53101563 -30.96046875 16.81203125 -31.6484375 17.1015625 C-36.64250396 19.11916535 -36.64250396 19.11916535 -40 18 C-26.79542738 11.70904101 -13.40200682 5.85552369 0 0 Z " fill="#FEC236" transform="translate(480,810)"/>
<path d="M0 0 C5.65227557 1.32994719 8.0416758 5.3621661 11 10 C14.50196479 16.15862773 15.20607031 22.9837967 15 30 C14.34 30.66 13.68 31.32 13 32 C12.91363281 30.94941406 12.82726562 29.89882813 12.73828125 28.81640625 C11.57545444 16.55559545 8.38707787 9.16727116 0 0 Z " fill="#F77429" transform="translate(636,912)"/>
<path d="M0 0 C-1.03898437 0.50789062 -2.07796875 1.01578125 -3.1484375 1.5390625 C-17.08580879 7.79904637 -17.08580879 7.79904637 -29 17 C-28.84130859 14.71044922 -28.84130859 14.71044922 -28 12 C-25.63916016 10.22314453 -25.63916016 10.22314453 -22.5390625 8.6328125 C-21.42789062 8.05789063 -20.31671875 7.48296875 -19.171875 6.890625 C-18.00140625 6.30796875 -16.8309375 5.7253125 -15.625 5.125 C-14.46226562 4.51914062 -13.29953125 3.91328125 -12.1015625 3.2890625 C-3.41062843 -1.13687614 -3.41062843 -1.13687614 0 0 Z " fill="#FEC537" transform="translate(440,830)"/>
<path d="M0 0 C11.52164009 0.77904328 11.52164009 0.77904328 17 3 C16.360625 3.12375 15.72125 3.2475 15.0625 3.375 C14.381875 3.58125 13.70125 3.7875 13 4 C12.67 4.66 12.34 5.32 12 6 C12.99 6.33 13.98 6.66 15 7 C14.01 7.495 14.01 7.495 13 8 C10.71741367 6.92325298 8.5643566 5.80453884 6.375 4.5625 C5.76398438 4.22412109 5.15296875 3.88574219 4.5234375 3.53710938 C3.011647 2.69853808 1.50529601 1.85017423 0 1 C0 0.67 0 0.34 0 0 Z " fill="#999C35" transform="translate(308,110)"/>
<path d="M0 0 C0.89460937 0.20496094 1.78921875 0.40992188 2.7109375 0.62109375 C9.80411057 2.20155555 16.74486111 3.51520961 24 4 C20.95318939 6.03120707 20.39881676 6.24659875 16.98828125 6.1953125 C15.85229492 6.18564453 15.85229492 6.18564453 14.69335938 6.17578125 C13.90767578 6.15902344 13.12199219 6.14226563 12.3125 6.125 C11.51521484 6.11597656 10.71792969 6.10695313 9.89648438 6.09765625 C7.930861 6.07411585 5.96539225 6.03824547 4 6 C4 5.34 4 4.68 4 4 C2.68 3.34 1.36 2.68 0 2 C0 1.34 0 0.68 0 0 Z " fill="#FC8F2F" transform="translate(684,719)"/>
<path d="M0 0 C1.485 0.99 1.485 0.99 3 2 C3 2.66 3 3.32 3 4 C3.57878906 4.2784375 4.15757812 4.556875 4.75390625 4.84375 C6.91065887 5.95400874 8.90436496 7.17946873 10.9375 8.5 C13.8731932 10.3601869 16.69709151 11.86462521 20 13 C17.77600991 13.74789047 16.42611279 14.12174651 14.140625 13.46875 C8.86060231 10.76328383 3.92879875 7.50349006 0 3 C0 2.01 0 1.02 0 0 Z " fill="#FDB130" transform="translate(301,708)"/>
<path d="M0 0 C2.86697492 1.28519565 4.97607712 2.57129254 7 5 C7 5.66 7 6.32 7 7 C7.66 7 8.32 7 9 7 C9 7.66 9 8.32 9 9 C9.5775 9.2475 10.155 9.495 10.75 9.75 C13.3002997 11.16683317 15.01785701 12.87627537 17 15 C16.67 15.66 16.34 16.32 16 17 C14.2925002 15.71937515 12.62626404 14.38232443 11 13 C11 12.34 11 11.68 11 11 C10.41734375 10.75378906 9.8346875 10.50757813 9.234375 10.25390625 C6.65287455 8.80519708 5.16155251 7.18806717 3.25 4.9375 C2.63640625 4.22464844 2.0228125 3.51179687 1.390625 2.77734375 C0 1 0 1 0 0 Z " fill="#F99131" transform="translate(369,742)"/>
<path d="M0 0 C2.475 0.99 2.475 0.99 5 2 C4.67 4.97 4.34 7.94 4 11 C3.34 10.67 2.68 10.34 2 10 C2 8.02 2 6.04 2 4 C-0.64 4 -3.28 4 -6 4 C-5.67 3.34 -5.34 2.68 -5 2 C-3.35 2 -1.7 2 0 2 C0 1.34 0 0.68 0 0 Z " fill="#B8B03A" transform="translate(486,100)"/>
<path d="M0 0 C0.66 0 1.32 0 2 0 C3.3671875 1.57421875 3.3671875 1.57421875 4.875 3.6875 C5.4009375 4.41324219 5.926875 5.13898437 6.46875 5.88671875 C6.9740625 6.58410156 7.479375 7.28148437 8 8 C9.32481269 9.67344761 10.65407903 11.34348188 12 13 C11.67 13.66 11.34 14.32 11 15 C9.53308542 13.44555348 8.07679359 11.88107825 6.625 10.3125 C5.81289063 9.44238281 5.00078125 8.57226562 4.1640625 7.67578125 C2.11022491 5.13628893 1.0099332 3.07974134 0 0 Z " fill="#FB8E30" transform="translate(357,727)"/>
<path d="M0 0 C4.95 0.33 9.9 0.66 15 1 C15 1.33 15 1.66 15 2 C13.06494977 2.24900646 11.12674066 2.47356242 9.1875 2.6875 C8.10855469 2.81511719 7.02960938 2.94273437 5.91796875 3.07421875 C3 3 3 3 0 0 Z " fill="#C8C744" transform="translate(377,188)"/>
<path d="M0 0 C2.97 0.495 2.97 0.495 6 1 C5.67 1.66 5.34 2.32 5 3 C4.360625 3.12375 3.72125 3.2475 3.0625 3.375 C0.80148727 3.80939427 0.80148727 3.80939427 -0.25 6.0625 C-0.4975 6.701875 -0.745 7.34125 -1 8 C-1.08226668 4.95613276 -0.97608217 2.92824652 0 0 Z " fill="#4E3A29" transform="translate(519,460)"/>
<path d="M0 0 C4.455 2.97 4.455 2.97 9 6 C8.01 6.33 7.02 6.66 6 7 C2.8125 4.6875 2.8125 4.6875 0 2 C0 1.34 0 0.68 0 0 Z " fill="#FD8B31" transform="translate(393,763)"/>
<path d="M0 0 C0.70125 0.185625 1.4025 0.37125 2.125 0.5625 C5.33888698 1.05156976 7.83560336 0.66231558 11 0 C8.04816899 2.95183101 5.04488053 3.08663988 1 4 C0.67 2.68 0.34 1.36 0 0 Z " fill="#83932F" transform="translate(427,224)"/>
<path d="M0 0 C0.33 0 0.66 0 1 0 C1 4.62 1 9.24 1 14 C0.67 14 0.34 14 0 14 C0 9.38 0 4.76 0 0 Z " fill="#F99830" transform="translate(540,874)"/>
<path d="M0 0 C0.33 0 0.66 0 1 0 C1 1.98 1 3.96 1 6 C0.67 6 0.34 6 0 6 C0 4.02 0 2.04 0 0 Z " fill="#F9932E" transform="translate(540,921)"/>
<path d="M0 0 C0.33 0 0.66 0 1 0 C1 1.98 1 3.96 1 6 C0.67 6 0.34 6 0 6 C0 4.02 0 2.04 0 0 Z " fill="#F99B32" transform="translate(540,818)"/>
<path d="M0 0 C0.99 0.99 1.98 1.98 3 3 C2.01 3.495 2.01 3.495 1 4 C0.67 2.68 0.34 1.36 0 0 Z " fill="#FDAB3A" transform="translate(733,585)"/>
<path d="M0 0 C0.66 0.33 1.32 0.66 2 1 C1.67 1.66 1.34 2.32 1 3 C0.34 2.34 -0.32 1.68 -1 1 C-0.67 0.67 -0.34 0.34 0 0 Z " fill="#F98E2F" transform="translate(642,912)"/>
<path d="M0 0 C0.33 0 0.66 0 1 0 C1 1.65 1 3.3 1 5 C0.67 5 0.34 5 0 5 C0 3.35 0 1.7 0 0 Z " fill="#FA962E" transform="translate(540,907)"/>
<path d="M0 0 C0.33 0 0.66 0 1 0 C1 1.65 1 3.3 1 5 C0.67 5 0.34 5 0 5 C0 3.35 0 1.7 0 0 Z " fill="#F99A32" transform="translate(540,851)"/>
<path d="M0 0 C0.33 0 0.66 0 1 0 C1 1.65 1 3.3 1 5 C0.67 5 0.34 5 0 5 C0 3.35 0 1.7 0 0 Z " fill="#F99B32" transform="translate(540,826)"/>
<path d="M0 0 C1.65 0 3.3 0 5 0 C5 0.33 5 0.66 5 1 C3.35 1 1.7 1 0 1 C0 0.67 0 0.34 0 0 Z " fill="#FDAF39" transform="translate(491,807)"/>
<path d="M0 0 C0.99 0 1.98 0 3 0 C3 0.66 3 1.32 3 2 C2.01 1.67 1.02 1.34 0 1 C0 0.67 0 0.34 0 0 Z " fill="#FC9F36" transform="translate(538,806)"/>
<path d="M0 0 C1.65 0 3.3 0 5 0 C5 0.33 5 0.66 5 1 C3.35 1 1.7 1 0 1 C0 0.67 0 0.34 0 0 Z " fill="#FEB63B" transform="translate(698,726)"/>
<path d="M0 0 C0.33 0 0.66 0 1 0 C1 1.65 1 3.3 1 5 C0.67 5 0.34 5 0 5 C0 3.35 0 1.7 0 0 Z " fill="#FBCC3C" transform="translate(288,669)"/>
<path d="M0 0 C0.33 0 0.66 0 1 0 C1 1.65 1 3.3 1 5 C0.67 5 0.34 5 0 5 C0 3.35 0 1.7 0 0 Z " fill="#FCCB3D" transform="translate(288,639)"/>
<path d="M0 0 C0.66 0.99 1.32 1.98 2 3 C1.01 2.67 0.02 2.34 -1 2 C-0.67 1.34 -0.34 0.68 0 0 Z " fill="#D0C744" transform="translate(410,195)"/>
<path d="M0 0 C1 4 1 4 1 4 Z " fill="#F9932E" transform="translate(540,915)"/>
<path d="M0 0 C0 3 0 3 0 3 Z " fill="#FA8F2F" transform="translate(647,914)"/>
<path d="M0 0 C1.485 0.99 1.485 0.99 3 2 C2.01 2 1.02 2 0 2 C0 1.34 0 0.68 0 0 Z " fill="#FA8E31" transform="translate(619,904)"/>
<path d="M0 0 C1 4 1 4 1 4 Z " fill="#FA9530" transform="translate(540,899)"/>
<path d="M0 0 C1 4 1 4 1 4 Z " fill="#FB9631" transform="translate(540,891)"/>
<path d="M0 0 C1 4 1 4 1 4 Z " fill="#FB9831" transform="translate(540,867)"/>
<path d="M0 0 C1 4 1 4 1 4 Z " fill="#FA9C31" transform="translate(540,843)"/>
<path d="M0 0 C1 4 1 4 1 4 Z " fill="#F99B33" transform="translate(540,835)"/>
<path d="M0 0 C1 4 1 4 1 4 Z " fill="#FB9933" transform="translate(540,811)"/>
<path d="M0 0 C0.99 0.495 0.99 0.495 2 1 C1.34 1.66 0.68 2.32 0 3 C0 2.01 0 1.02 0 0 Z " fill="#FEB33C" transform="translate(370,747)"/>
<path d="M0 0 C4 1 4 1 4 1 Z " fill="#FFC640" transform="translate(329,726)"/>
<path d="M0 0 C1 4 1 4 1 4 Z " fill="#FCCC3E" transform="translate(288,664)"/>
<path d="M0 0 C1 4 1 4 1 4 Z " fill="#FEBC41" transform="translate(320,390)"/>
<path d="M0 0 C0 3 0 3 0 3 Z " fill="#FDBA40" transform="translate(321,386)"/>
<path d="M0 0 C0.66 0.66 1.32 1.32 2 2 C1.01 2.495 1.01 2.495 0 3 C0 2.01 0 1.02 0 0 Z " fill="#D3C440" transform="translate(418,210)"/>
<path d="M0 0 C0.33 0.66 0.66 1.32 1 2 C0.34 1.67 -0.32 1.34 -1 1 C-0.67 0.67 -0.34 0.34 0 0 Z " fill="#FEA626" transform="translate(543,970)"/>
<path d="" fill="#FEAA2E" transform="translate(0,0)"/>
<path d="M0 0 C0.66 0 1.32 0 2 0 C1.67 0.66 1.34 1.32 1 2 C0.67 1.34 0.34 0.68 0 0 Z " fill="#FA912B" transform="translate(539,929)"/>
<path d="" fill="#FA9A31" transform="translate(0,0)"/>
<path d="M0 0 C0.66 0.66 1.32 1.32 2 2 C1.34 2 0.68 2 0 2 C0 1.34 0 0.68 0 0 Z " fill="#FDB53B" transform="translate(368,744)"/>
<path d="M0 0 C0.99 0.495 0.99 0.495 2 1 C1.01 1.495 1.01 1.495 0 2 C0 1.34 0 0.68 0 0 Z " fill="#FFC43D" transform="translate(337,725)"/>
<path d="" fill="#FEAC3B" transform="translate(0,0)"/>
<path d="" fill="#FEBF3E" transform="translate(0,0)"/>
<path d="" fill="#FEBB40" transform="translate(0,0)"/>
<path d="" fill="#FEBD40" transform="translate(0,0)"/>
<path d="" fill="#FFCA3E" transform="translate(0,0)"/>
<path d="M0 0 C0.99 0.495 0.99 0.495 2 1 C1.01 1.495 1.01 1.495 0 2 C0 1.34 0 0.68 0 0 Z " fill="#FCCD41" transform="translate(392,248)"/>
<path d="M0 0 C3 1 3 1 3 1 Z " fill="#FACB3D" transform="translate(589,224)"/>
<path d="M0 0 C0.66 0.66 1.32 1.32 2 2 C1.34 2 0.68 2 0 2 C0 1.34 0 0.68 0 0 Z " fill="#E1D94F" transform="translate(362,187)"/>
<path d="M0 0 C3 1 3 1 3 1 Z " fill="#E0D952" transform="translate(321,173)"/>
<path d="M0 0 C2 1 2 1 2 1 Z " fill="#FC9A27" transform="translate(526,935)"/>
<path d="" fill="#FC9B28" transform="translate(0,0)"/>
<path d="" fill="#FFAA30" transform="translate(0,0)"/>
<path d="" fill="#FA902E" transform="translate(0,0)"/>
<path d="M0 0 C2 1 2 1 2 1 Z " fill="#F8902E" transform="translate(631,907)"/>
<path d="M0 0 C2 1 2 1 2 1 Z " fill="#FFBA38" transform="translate(496,907)"/>
<path d="" fill="#FA9031" transform="translate(0,0)"/>
<path d="" fill="#FB9832" transform="translate(0,0)"/>
<path d="" fill="#F89B31" transform="translate(0,0)"/>
<path d="M0 0 C2 1 2 1 2 1 Z " fill="#FDA639" transform="translate(532,807)"/>
<path d="M0 0 C2 1 2 1 2 1 Z " fill="#FCAA39" transform="translate(524,807)"/>
<path d="M0 0 C2 1 2 1 2 1 Z " fill="#FCAD39" transform="translate(403,774)"/>
<path d="M0 0 C2 1 2 1 2 1 Z " fill="#FFB73D" transform="translate(360,741)"/>
<path d="" fill="#FEBD3D" transform="translate(0,0)"/>
<path d="M0 0 C2 1 2 1 2 1 Z " fill="#FEB33A" transform="translate(705,725)"/>
<path d="M0 0 C2 1 2 1 2 1 Z " fill="#FFC43E" transform="translate(340,725)"/>
<path d="M0 0 C2 1 2 1 2 1 Z " fill="#FFC63F" transform="translate(321,725)"/>
<path d="M0 0 C2 1 2 1 2 1 Z " fill="#FFC13B" transform="translate(346,723)"/>
<path d="M0 0 C2 1 2 1 2 1 Z " fill="#FBC53E" transform="translate(678,719)"/>
<path d="" fill="#FCCC3E" transform="translate(0,0)"/>
<path d="M0 0 C2 1 2 1 2 1 Z " fill="#FCAC3B" transform="translate(739,608)"/>
<path d="" fill="#FEC73C" transform="translate(0,0)"/>
<path d="" fill="#FFBA3E" transform="translate(0,0)"/>
<path d="" fill="#FCC83F" transform="translate(0,0)"/>
<path d="" fill="#FDBC3B" transform="translate(0,0)"/>
<path d="M0 0 C2 1 2 1 2 1 Z " fill="#FFC73E" transform="translate(368,269)"/>
<path d="" fill="#FBCC40" transform="translate(0,0)"/>
<path d="M0 0 C2 1 2 1 2 1 Z " fill="#FDC83D" transform="translate(621,240)"/>
<path d="M0 0 C2 1 2 1 2 1 Z " fill="#F7CA41" transform="translate(416,232)"/>
<path d="M0 0 C2 1 2 1 2 1 Z " fill="#D6C640" transform="translate(419,214)"/>
<path d="M0 0 C2 1 2 1 2 1 Z " fill="#F9CA3A" transform="translate(465,213)"/>
<path d="M0 0 C2 1 2 1 2 1 Z " fill="#FACA3B" transform="translate(471,212)"/>
<path d="M0 0 C2 1 2 1 2 1 Z " fill="#D5C640" transform="translate(413,201)"/>
<path d="" fill="#D0C844" transform="translate(0,0)"/>
<path d="M0 0 C2 1 2 1 2 1 Z " fill="#DFD751" transform="translate(370,189)"/>
<path d="M0 0 C2 1 2 1 2 1 Z " fill="#E1D94D" transform="translate(365,188)"/>
<path d="M0 0 C2 1 2 1 2 1 Z " fill="#E1DA51" transform="translate(346,183)"/>
<path d="" fill="#CEC040" transform="translate(0,0)"/>
<path d="" fill="#D7D551" transform="translate(0,0)"/>
<path d="" fill="#CAC140" transform="translate(0,0)"/>
<path d="" fill="#DED94F" transform="translate(0,0)"/>
<path d="M0 0 C2 1 2 1 2 1 Z " fill="#DDD853" transform="translate(350,88)"/>
<path d="" fill="#FFAB11" transform="translate(0,0)"/>
<path d="" fill="#FEAB24" transform="translate(0,0)"/>
<path d="" fill="#FFA926" transform="translate(0,0)"/>
<path d="" fill="#FFAA27" transform="translate(0,0)"/>
<path d="" fill="#FFAB28" transform="translate(0,0)"/>
<path d="" fill="#FFBA27" transform="translate(0,0)"/>
<path d="" fill="#FFBC21" transform="translate(0,0)"/>
<path d="" fill="#FFBA21" transform="translate(0,0)"/>
<path d="" fill="#FFAA17" transform="translate(0,0)"/>
<path d="" fill="#FFA927" transform="translate(0,0)"/>
<path d="" fill="#FFA827" transform="translate(0,0)"/>
<path d="" fill="#FEA825" transform="translate(0,0)"/>
<path d="" fill="#FFBA29" transform="translate(0,0)"/>
<path d="" fill="#FFBB28" transform="translate(0,0)"/>
<path d="" fill="#FFBC27" transform="translate(0,0)"/>
<path d="" fill="#FFA825" transform="translate(0,0)"/>
<path d="" fill="#FFA628" transform="translate(0,0)"/>
<path d="" fill="#FFA426" transform="translate(0,0)"/>
<path d="" fill="#FFA726" transform="translate(0,0)"/>
<path d="" fill="#FFAD26" transform="translate(0,0)"/>
<path d="" fill="#FFB428" transform="translate(0,0)"/>
<path d="" fill="#FFAC1A" transform="translate(0,0)"/>
<path d="" fill="#FFA723" transform="translate(0,0)"/>
<path d="" fill="#FFA626" transform="translate(0,0)"/>
<path d="" fill="#FFA627" transform="translate(0,0)"/>
<path d="" fill="#FFA728" transform="translate(0,0)"/>
<path d="" fill="#FFAD27" transform="translate(0,0)"/>
<path d="" fill="#FFB127" transform="translate(0,0)"/>
<path d="" fill="#FFB028" transform="translate(0,0)"/>
<path d="" fill="#FFBA2A" transform="translate(0,0)"/>
<path d="" fill="#FFAA0B" transform="translate(0,0)"/>
<path d="" fill="#FFAA1D" transform="translate(0,0)"/>
<path d="" fill="#FFA324" transform="translate(0,0)"/>
<path d="" fill="#FFA226" transform="translate(0,0)"/>
<path d="" fill="#FFA025" transform="translate(0,0)"/>
<path d="" fill="#FFA027" transform="translate(0,0)"/>
<path d="" fill="#FEA127" transform="translate(0,0)"/>
<path d="" fill="#FFA026" transform="translate(0,0)"/>
<path d="" fill="#FFA128" transform="translate(0,0)"/>
<path d="" fill="#FFA327" transform="translate(0,0)"/>
<path d="" fill="#FFA527" transform="translate(0,0)"/>
<path d="" fill="#FFA727" transform="translate(0,0)"/>
<path d="" fill="#FFAA27" transform="translate(0,0)"/>
<path d="" fill="#FEAE28" transform="translate(0,0)"/>
<path d="" fill="#FFB127" transform="translate(0,0)"/>
<path d="" fill="#FFB32A" transform="translate(0,0)"/>
<path d="" fill="#FFB52A" transform="translate(0,0)"/>
<path d="" fill="#FFB82C" transform="translate(0,0)"/>
<path d="" fill="#FFBB2B" transform="translate(0,0)"/>
<path d="" fill="#FFBB29" transform="translate(0,0)"/>
<path d="" fill="#FFBB27" transform="translate(0,0)"/>
<path d="" fill="#FFBC25" transform="translate(0,0)"/>
<path d="" fill="#FEA026" transform="translate(0,0)"/>
<path d="" fill="#FFA127" transform="translate(0,0)"/>
<path d="" fill="#FFA327" transform="translate(0,0)"/>
<path d="" fill="#FFA326" transform="translate(0,0)"/>
<path d="" fill="#FEA625" transform="translate(0,0)"/>
<path d="" fill="#FFAA28" transform="translate(0,0)"/>
<path d="" fill="#FFAD28" transform="translate(0,0)"/>
<path d="" fill="#FCA228" transform="translate(0,0)"/>
<path d="" fill="#FEA727" transform="translate(0,0)"/>
<path d="" fill="#FFB62B" transform="translate(0,0)"/>
<path d="" fill="#FEA226" transform="translate(0,0)"/>
<path d="" fill="#FFA525" transform="translate(0,0)"/>
<path d="" fill="#FEA726" transform="translate(0,0)"/>
<path d="" fill="#FFAB27" transform="translate(0,0)"/>
<path d="" fill="#FFAE29" transform="translate(0,0)"/>
<path d="" fill="#FFB82B" transform="translate(0,0)"/>
<path d="" fill="#FFB42A" transform="translate(0,0)"/>
<path d="" fill="#FFB32B" transform="translate(0,0)"/>
<path d="" fill="#FFA500" transform="translate(0,0)"/>
<path d="" fill="#FFA523" transform="translate(0,0)"/>
<path d="" fill="#FE9D27" transform="translate(0,0)"/>
<path d="" fill="#FFBA29" transform="translate(0,0)"/>
<path d="" fill="#FEBB29" transform="translate(0,0)"/>
<path d="" fill="#FFBB25" transform="translate(0,0)"/>
<path d="" fill="#FF9E25" transform="translate(0,0)"/>
<path d="" fill="#FEBB2A" transform="translate(0,0)"/>
<path d="" fill="#FDBA2A" transform="translate(0,0)"/>
<path d="" fill="#FEBA29" transform="translate(0,0)"/>
<path d="" fill="#FFA909" transform="translate(0,0)"/>
<path d="" fill="#FFA920" transform="translate(0,0)"/>
<path d="" fill="#FFBC27" transform="translate(0,0)"/>
<path d="" fill="#FFBB27" transform="translate(0,0)"/>
<path d="" fill="#FFBB27" transform="translate(0,0)"/>
<path d="" fill="#FFBA29" transform="translate(0,0)"/>
<path d="" fill="#FFBA28" transform="translate(0,0)"/>
<path d="" fill="#FFBD29" transform="translate(0,0)"/>
<path d="" fill="#FFBB2E" transform="translate(0,0)"/>
<path d="" fill="#FFA600" transform="translate(0,0)"/>
<path d="" fill="#FEAC1D" transform="translate(0,0)"/>
<path d="" fill="#FE9E23" transform="translate(0,0)"/>
<path d="" fill="#FE9828" transform="translate(0,0)"/>
<path d="" fill="#FEA029" transform="translate(0,0)"/>
<path d="" fill="#FFBE2E" transform="translate(0,0)"/>
<path d="" fill="#FFBF2C" transform="translate(0,0)"/>
<path d="" fill="#FFBE25" transform="translate(0,0)"/>
<path d="" fill="#FE9F2C" transform="translate(0,0)"/>
<path d="" fill="#FD9C2A" transform="translate(0,0)"/>
<path d="" fill="#FC9426" transform="translate(0,0)"/>
<path d="" fill="#FA8E2C" transform="translate(0,0)"/>
<path d="" fill="#FA8C2A" transform="translate(0,0)"/>
<path d="" fill="#FD9628" transform="translate(0,0)"/>
<path d="" fill="#F9912B" transform="translate(0,0)"/>
<path d="" fill="#FE9C2A" transform="translate(0,0)"/>
<path d="" fill="#FB8D2D" transform="translate(0,0)"/>
<path d="" fill="#FFA701" transform="translate(0,0)"/>
<path d="" fill="#FEA702" transform="translate(0,0)"/>
<path d="" fill="#FFA909" transform="translate(0,0)"/>
<path d="" fill="#FFAE17" transform="translate(0,0)"/>
<path d="" fill="#FFAE1D" transform="translate(0,0)"/>
<path d="" fill="#FD9727" transform="translate(0,0)"/>
<path d="" fill="#FA942E" transform="translate(0,0)"/>
<path d="" fill="#FD9F2E" transform="translate(0,0)"/>
<path d="" fill="#FFBE27" transform="translate(0,0)"/>
<path d="" fill="#FA952E" transform="translate(0,0)"/>
<path d="" fill="#FB922B" transform="translate(0,0)"/>
<path d="" fill="#F6932E" transform="translate(0,0)"/>
<path d="" fill="#FB902E" transform="translate(0,0)"/>
<path d="" fill="#FFB235" transform="translate(0,0)"/>
<path d="" fill="#FEB033" transform="translate(0,0)"/>
<path d="" fill="#FA8E2F" transform="translate(0,0)"/>
<path d="" fill="#F79230" transform="translate(0,0)"/>
<path d="" fill="#FB8F2D" transform="translate(0,0)"/>
<path d="" fill="#FD9729" transform="translate(0,0)"/>
<path d="" fill="#FD9A2F" transform="translate(0,0)"/>
<path d="" fill="#FFBF28" transform="translate(0,0)"/>
<path d="" fill="#F88F2F" transform="translate(0,0)"/>
<path d="" fill="#FA902E" transform="translate(0,0)"/>
<path d="" fill="#F99130" transform="translate(0,0)"/>
<path d="" fill="#F78D2F" transform="translate(0,0)"/>
<path d="" fill="#F9902F" transform="translate(0,0)"/>
<path d="" fill="#F89631" transform="translate(0,0)"/>
<path d="" fill="#FFBF39" transform="translate(0,0)"/>
<path d="" fill="#FFC039" transform="translate(0,0)"/>
<path d="" fill="#FFC23C" transform="translate(0,0)"/>
<path d="" fill="#F98F30" transform="translate(0,0)"/>
<path d="" fill="#FC9131" transform="translate(0,0)"/>
<path d="" fill="#FFB020" transform="translate(0,0)"/>
<path d="" fill="#FE962C" transform="translate(0,0)"/>
<path d="" fill="#FDC53F" transform="translate(0,0)"/>
<path d="" fill="#FFB106" transform="translate(0,0)"/>
<path d="" fill="#FFB21A" transform="translate(0,0)"/>
<path d="" fill="#F9912F" transform="translate(0,0)"/>
<path d="" fill="#FB912F" transform="translate(0,0)"/>
<path d="" fill="#FFC23E" transform="translate(0,0)"/>
<path d="" fill="#FB9432" transform="translate(0,0)"/>
<path d="" fill="#FB9231" transform="translate(0,0)"/>
<path d="" fill="#FFC22D" transform="translate(0,0)"/>
<path d="" fill="#FFC23E" transform="translate(0,0)"/>
<path d="" fill="#FFA130" transform="translate(0,0)"/>
<path d="" fill="#FB9B33" transform="translate(0,0)"/>
<path d="" fill="#F99833" transform="translate(0,0)"/>
<path d="" fill="#FFC341" transform="translate(0,0)"/>
<path d="" fill="#FFAB30" transform="translate(0,0)"/>
<path d="" fill="#FFA230" transform="translate(0,0)"/>
<path d="" fill="#FFAC37" transform="translate(0,0)"/>
<path d="" fill="#FB9933" transform="translate(0,0)"/>
<path d="" fill="#FEBD3B" transform="translate(0,0)"/>
<path d="" fill="#FFB93A" transform="translate(0,0)"/>
<path d="" fill="#FFB539" transform="translate(0,0)"/>
<path d="" fill="#F99832" transform="translate(0,0)"/>
<path d="" fill="#FFB631" transform="translate(0,0)"/>
<path d="" fill="#FDA334" transform="translate(0,0)"/>
<path d="" fill="#FEB53B" transform="translate(0,0)"/>
<path d="" fill="#FFBA27" transform="translate(0,0)"/>
<path d="" fill="#FFB729" transform="translate(0,0)"/>
<path d="" fill="#FCB43B" transform="translate(0,0)"/>
<path d="" fill="#FFB005" transform="translate(0,0)"/>
<path d="" fill="#FDB93E" transform="translate(0,0)"/>
<path d="" fill="#FEA438" transform="translate(0,0)"/>
<path d="" fill="#FDAA39" transform="translate(0,0)"/>
<path d="" fill="#FDB33A" transform="translate(0,0)"/>
<path d="" fill="#FEAF3A" transform="translate(0,0)"/>
<path d="" fill="#FCA035" transform="translate(0,0)"/>
<path d="" fill="#FFAC38" transform="translate(0,0)"/>
<path d="" fill="#FFAD38" transform="translate(0,0)"/>
<path d="" fill="#FFB53E" transform="translate(0,0)"/>
<path d="" fill="#FEB43C" transform="translate(0,0)"/>
<path d="" fill="#FCAC3B" transform="translate(0,0)"/>
<path d="" fill="#FFB03C" transform="translate(0,0)"/>
<path d="" fill="#FEB03B" transform="translate(0,0)"/>
<path d="" fill="#FFB33C" transform="translate(0,0)"/>
<path d="" fill="#FFAF3B" transform="translate(0,0)"/>
<path d="" fill="#FFB23A" transform="translate(0,0)"/>
<path d="" fill="#FFB13D" transform="translate(0,0)"/>
<path d="" fill="#FFB03D" transform="translate(0,0)"/>
<path d="" fill="#FEC33C" transform="translate(0,0)"/>
<path d="" fill="#FFBA31" transform="translate(0,0)"/>
<path d="" fill="#FEB63C" transform="translate(0,0)"/>
<path d="" fill="#FFB43A" transform="translate(0,0)"/>
<path d="" fill="#FFB63D" transform="translate(0,0)"/>
<path d="" fill="#FDB93A" transform="translate(0,0)"/>
<path d="" fill="#FFB73C" transform="translate(0,0)"/>
<path d="" fill="#FFB83C" transform="translate(0,0)"/>
<path d="" fill="#FCC23D" transform="translate(0,0)"/>
<path d="" fill="#FCB73A" transform="translate(0,0)"/>
<path d="" fill="#FFB83D" transform="translate(0,0)"/>
<path d="" fill="#FCB83B" transform="translate(0,0)"/>
<path d="" fill="#FFB539" transform="translate(0,0)"/>
<path d="" fill="#FFB732" transform="translate(0,0)"/>
<path d="" fill="#FCBB3D" transform="translate(0,0)"/>
<path d="" fill="#FABC3A" transform="translate(0,0)"/>
<path d="" fill="#FEB73A" transform="translate(0,0)"/>
<path d="" fill="#FFB83C" transform="translate(0,0)"/>
<path d="" fill="#FEB739" transform="translate(0,0)"/>
<path d="" fill="#FFB63B" transform="translate(0,0)"/>
<path d="" fill="#FFC740" transform="translate(0,0)"/>
<path d="" fill="#FEB136" transform="translate(0,0)"/>
<path d="" fill="#FFC33D" transform="translate(0,0)"/>
<path d="" fill="#FFB139" transform="translate(0,0)"/>
<path d="" fill="#FFBF3B" transform="translate(0,0)"/>
<path d="" fill="#FFB93A" transform="translate(0,0)"/>
<path d="" fill="#FFBC3B" transform="translate(0,0)"/>
<path d="" fill="#FFAE39" transform="translate(0,0)"/>
<path d="" fill="#FEB312" transform="translate(0,0)"/>
<path d="" fill="#FEAC36" transform="translate(0,0)"/>
<path d="" fill="#FFAD37" transform="translate(0,0)"/>
<path d="" fill="#FEAC35" transform="translate(0,0)"/>
<path d="" fill="#FDAC36" transform="translate(0,0)"/>
<path d="" fill="#FECB3C" transform="translate(0,0)"/>
<path d="" fill="#FFBB26" transform="translate(0,0)"/>
<path d="" fill="#FEAE3A" transform="translate(0,0)"/>
<path d="" fill="#FFC72B" transform="translate(0,0)"/>
<path d="" fill="#FECD3D" transform="translate(0,0)"/>
<path d="" fill="#FAAC38" transform="translate(0,0)"/>
<path d="" fill="#FEAC39" transform="translate(0,0)"/>
<path d="" fill="#FFCA3A" transform="translate(0,0)"/>
<path d="" fill="#FBCC3E" transform="translate(0,0)"/>
<path d="" fill="#FCCF3E" transform="translate(0,0)"/>
<path d="" fill="#FBCB3E" transform="translate(0,0)"/>
<path d="" fill="#FFB816" transform="translate(0,0)"/>
<path d="" fill="#FFB632" transform="translate(0,0)"/>
<path d="" fill="#FCAC3B" transform="translate(0,0)"/>
<path d="" fill="#FBCE3E" transform="translate(0,0)"/>
<path d="" fill="#FFAC3B" transform="translate(0,0)"/>
<path d="" fill="#FFB40E" transform="translate(0,0)"/>
<path d="" fill="#FEBC29" transform="translate(0,0)"/>
<path d="" fill="#FFCB3D" transform="translate(0,0)"/>
<path d="" fill="#FDAB3D" transform="translate(0,0)"/>
<path d="" fill="#FAAE38" transform="translate(0,0)"/>
<path d="" fill="#FEB139" transform="translate(0,0)"/>
<path d="" fill="#FEAD39" transform="translate(0,0)"/>
<path d="" fill="#FFB30D" transform="translate(0,0)"/>
<path d="" fill="#FCCC42" transform="translate(0,0)"/>
<path d="" fill="#FFCC36" transform="translate(0,0)"/>
<path d="" fill="#FFB60E" transform="translate(0,0)"/>
<path d="" fill="#FFAF3A" transform="translate(0,0)"/>
<path d="" fill="#FFCE3D" transform="translate(0,0)"/>
<path d="" fill="#FFAD39" transform="translate(0,0)"/>
<path d="" fill="#FEAD3A" transform="translate(0,0)"/>
<path d="" fill="#F9B23A" transform="translate(0,0)"/>
<path d="" fill="#FECD42" transform="translate(0,0)"/>
<path d="" fill="#FDB03C" transform="translate(0,0)"/>
<path d="" fill="#FDB23A" transform="translate(0,0)"/>
<path d="" fill="#FCB23A" transform="translate(0,0)"/>
<path d="" fill="#FEB43C" transform="translate(0,0)"/>
<path d="" fill="#FFBB3C" transform="translate(0,0)"/>
<path d="" fill="#FFC83B" transform="translate(0,0)"/>
<path d="" fill="#FFC53C" transform="translate(0,0)"/>
<path d="" fill="#FEBC1C" transform="translate(0,0)"/>
<path d="" fill="#FFC63E" transform="translate(0,0)"/>
<path d="" fill="#FFB813" transform="translate(0,0)"/>
<path d="" fill="#FDBD3F" transform="translate(0,0)"/>
<path d="" fill="#FFBB42" transform="translate(0,0)"/>
<path d="" fill="#FFBF42" transform="translate(0,0)"/>
<path d="" fill="#FFBE40" transform="translate(0,0)"/>
<path d="" fill="#FFBF41" transform="translate(0,0)"/>
<path d="" fill="#FEC125" transform="translate(0,0)"/>
<path d="" fill="#FFBC3F" transform="translate(0,0)"/>
<path d="" fill="#FECA3F" transform="translate(0,0)"/>
<path d="" fill="#FEB40A" transform="translate(0,0)"/>
<path d="" fill="#FFBB17" transform="translate(0,0)"/>
<path d="" fill="#FFCA40" transform="translate(0,0)"/>
<path d="" fill="#FFBE40" transform="translate(0,0)"/>
<path d="" fill="#FEC83D" transform="translate(0,0)"/>
<path d="" fill="#FEBD3D" transform="translate(0,0)"/>
<path d="" fill="#FFC936" transform="translate(0,0)"/>
<path d="" fill="#FFB40A" transform="translate(0,0)"/>
<path d="" fill="#FFC140" transform="translate(0,0)"/>
<path d="" fill="#FFBC40" transform="translate(0,0)"/>
<path d="" fill="#FEC93E" transform="translate(0,0)"/>
<path d="" fill="#FFC33E" transform="translate(0,0)"/>
<path d="" fill="#FCC53F" transform="translate(0,0)"/>
<path d="" fill="#FFC13D" transform="translate(0,0)"/>
<path d="" fill="#FFCD3D" transform="translate(0,0)"/>
<path d="" fill="#FBC83C" transform="translate(0,0)"/>
<path d="" fill="#FFCE3D" transform="translate(0,0)"/>
<path d="" fill="#FEC93C" transform="translate(0,0)"/>
<path d="" fill="#FEC83C" transform="translate(0,0)"/>
<path d="" fill="#FFCC3F" transform="translate(0,0)"/>
<path d="" fill="#FFCD3E" transform="translate(0,0)"/>
<path d="" fill="#FACC3F" transform="translate(0,0)"/>
<path d="" fill="#FFBD15" transform="translate(0,0)"/>
<path d="" fill="#F9D13C" transform="translate(0,0)"/>
<path d="" fill="#FCCA3E" transform="translate(0,0)"/>
<path d="" fill="#FBCB40" transform="translate(0,0)"/>
<path d="" fill="#FCC83F" transform="translate(0,0)"/>
<path d="" fill="#F5CC3D" transform="translate(0,0)"/>
<path d="" fill="#FFC83C" transform="translate(0,0)"/>
<path d="" fill="#F1C240" transform="translate(0,0)"/>
<path d="" fill="#FECD3C" transform="translate(0,0)"/>
<path d="" fill="#F4C742" transform="translate(0,0)"/>
<path d="" fill="#FECA3C" transform="translate(0,0)"/>
<path d="" fill="#F0CC3F" transform="translate(0,0)"/>
<path d="" fill="#ECCB3E" transform="translate(0,0)"/>
<path d="" fill="#FFCD3E" transform="translate(0,0)"/>
<path d="" fill="#FDCD3C" transform="translate(0,0)"/>
<path d="" fill="#FBCB3D" transform="translate(0,0)"/>
<path d="" fill="#FFCA3D" transform="translate(0,0)"/>
<path d="" fill="#FBCD40" transform="translate(0,0)"/>
<path d="" fill="#D5C23E" transform="translate(0,0)"/>
<path d="" fill="#F9C939" transform="translate(0,0)"/>
<path d="" fill="#F8CC3A" transform="translate(0,0)"/>
<path d="" fill="#FFCC3C" transform="translate(0,0)"/>
<path d="" fill="#FFCD3C" transform="translate(0,0)"/>
<path d="" fill="#FBCB3D" transform="translate(0,0)"/>
<path d="" fill="#FCCC3E" transform="translate(0,0)"/>
<path d="" fill="#FEC83E" transform="translate(0,0)"/>
<path d="" fill="#FCCA40" transform="translate(0,0)"/>
<path d="" fill="#FECC3E" transform="translate(0,0)"/>
<path d="" fill="#FECC3E" transform="translate(0,0)"/>
<path d="" fill="#FDC93C" transform="translate(0,0)"/>
<path d="" fill="#FECB3E" transform="translate(0,0)"/>
<path d="" fill="#FCCE40" transform="translate(0,0)"/>
<path d="" fill="#FDCF3C" transform="translate(0,0)"/>
<path d="" fill="#FFBA11" transform="translate(0,0)"/>
<path d="" fill="#CFC241" transform="translate(0,0)"/>
<path d="" fill="#D5C73E" transform="translate(0,0)"/>
<path d="" fill="#D0C944" transform="translate(0,0)"/>
<path d="" fill="#F1D545" transform="translate(0,0)"/>
<path d="" fill="#DBD046" transform="translate(0,0)"/>
<path d="" fill="#DED74F" transform="translate(0,0)"/>
<path d="" fill="#E1DB51" transform="translate(0,0)"/>
<path d="" fill="#E1D950" transform="translate(0,0)"/>
<path d="" fill="#E1DB53" transform="translate(0,0)"/>
<path d="" fill="#E0DB52" transform="translate(0,0)"/>
<path d="" fill="#E2DA52" transform="translate(0,0)"/>
<path d="" fill="#CFBF3C" transform="translate(0,0)"/>
<path d="" fill="#E3DC53" transform="translate(0,0)"/>
<path d="" fill="#D2CD46" transform="translate(0,0)"/>
<path d="" fill="#D0CD48" transform="translate(0,0)"/>
<path d="" fill="#CEC23F" transform="translate(0,0)"/>
<path d="" fill="#D1CF48" transform="translate(0,0)"/>
<path d="" fill="#CCBF3F" transform="translate(0,0)"/>
<path d="" fill="#D1CC44" transform="translate(0,0)"/>
<path d="" fill="#CEC742" transform="translate(0,0)"/>
<path d="" fill="#FFC327" transform="translate(0,0)"/>
<path d="" fill="#D9D54B" transform="translate(0,0)"/>
<path d="" fill="#E0DA51" transform="translate(0,0)"/>
<path d="" fill="#DFD84F" transform="translate(0,0)"/>
<path d="" fill="#FFC21F" transform="translate(0,0)"/>
<path d="" fill="#CBBD3C" transform="translate(0,0)"/>
<path d="" fill="#DBD44B" transform="translate(0,0)"/>
<path d="" fill="#DFD94F" transform="translate(0,0)"/>
<path d="" fill="#CCBE3D" transform="translate(0,0)"/>
<path d="" fill="#E0D650" transform="translate(0,0)"/>
<path d="" fill="#D6D551" transform="translate(0,0)"/>
<path d="" fill="#CCC645" transform="translate(0,0)"/>
<path d="" fill="#EED444" transform="translate(0,0)"/>
<path d="" fill="#CCC240" transform="translate(0,0)"/>
<path d="" fill="#CDBD3C" transform="translate(0,0)"/>
<path d="" fill="#CBBD3B" transform="translate(0,0)"/>
<path d="" fill="#CBBE3A" transform="translate(0,0)"/>
<path d="" fill="#CABD3D" transform="translate(0,0)"/>
<path d="" fill="#CEBE3C" transform="translate(0,0)"/>
<path d="" fill="#DFDA50" transform="translate(0,0)"/>
<path d="" fill="#DFDB4F" transform="translate(0,0)"/>
<path d="" fill="#CCC241" transform="translate(0,0)"/>
<path d="" fill="#CBBF3F" transform="translate(0,0)"/>
<path d="" fill="#E1D94F" transform="translate(0,0)"/>
<path d="" fill="#DAC63F" transform="translate(0,0)"/>
<path d="" fill="#CFC142" transform="translate(0,0)"/>
<path d="" fill="#CCBF3E" transform="translate(0,0)"/>
<path d="" fill="#FEB104" transform="translate(0,0)"/>
<path d="" fill="#E2DA54" transform="translate(0,0)"/>
<path d="" fill="#D4C13E" transform="translate(0,0)"/>
<path d="" fill="#E2D74F" transform="translate(0,0)"/>
<path d="" fill="#DCD852" transform="translate(0,0)"/>
<path d="" fill="#E0D951" transform="translate(0,0)"/>
<path d="" fill="#E3D84C" transform="translate(0,0)"/>
<path d="" fill="#DFDA53" transform="translate(0,0)"/>
<path d="" fill="#E5DA4C" transform="translate(0,0)"/>
<path d="" fill="#E0DD56" transform="translate(0,0)"/>
<path d="" fill="#E2DB51" transform="translate(0,0)"/>
<path d="" fill="#DFD954" transform="translate(0,0)"/>
<path d="" fill="#E0D953" transform="translate(0,0)"/>
<path d="" fill="#FFB911" transform="translate(0,0)"/>
<path d="" fill="#FFBC12" transform="translate(0,0)"/>
<path d="" fill="#EDD64A" transform="translate(0,0)"/>
<path d="" fill="#F2C334" transform="translate(0,0)"/>
<path d="" fill="#FEBC17" transform="translate(0,0)"/>
<path d="" fill="#FFBE1D" transform="translate(0,0)"/>
<path d="" fill="#F6C837" transform="translate(0,0)"/>
</svg>
